<?xml version="1.0" encoding="utf-8" standalone="no"?>
<!DOCTYPE svg PUBLIC "-//W3C//DTD SVG 1.1//EN"
  "http://www.w3.org/Graphics/SVG/1.1/DTD/svg11.dtd">
<svg xmlns:xlink="http://www.w3.org/1999/xlink" width="302.4pt" height="129.6pt" viewBox="0 0 302.4 129.6" xmlns="http://www.w3.org/2000/svg" version="1.1">
 <metadata>
  <rdf:RDF xmlns:dc="http://purl.org/dc/elements/1.1/" xmlns:cc="http://creativecommons.org/ns#" xmlns:rdf="http://www.w3.org/1999/02/22-rdf-syntax-ns#">
   <cc:Work>
    <dc:type rdf:resource="http://purl.org/dc/dcmitype/StillImage"/>
    <dc:date>2025-06-04T12:47:51.007102</dc:date>
    <dc:format>image/svg+xml</dc:format>
    <dc:creator>
     <cc:Agent>
      <dc:title>Matplotlib v3.10.1, https://matplotlib.org/</dc:title>
     </cc:Agent>
    </dc:creator>
   </cc:Work>
  </rdf:RDF>
 </metadata>
 <defs>
  <style type="text/css">*{stroke-linejoin: round; stroke-linecap: butt}</style>
 </defs>
 <g id="figure_1">
  <g id="patch_1">
   <path d="M 0 129.6 
L 302.4 129.6 
L 302.4 0 
L 0 0 
z
" style="fill: #ffffff"/>
  </g>
  <g id="axes_1">
   <g id="patch_2">
    <path d="M 169.6275 37.61775 
C 170.015956 37.61775 170.388555 37.463415 170.663235 37.188735 
C 170.937915 36.914055 171.09225 36.541456 171.09225 36.153 
C 171.09225 35.764544 170.937915 35.391945 170.663235 35.117265 
C 170.388555 34.842585 170.015956 34.68825 169.6275 34.68825 
C 169.239044 34.68825 168.866445 34.842585 168.591765 35.117265 
C 168.317085 35.391945 168.16275 35.764544 168.16275 36.153 
C 168.16275 36.541456 168.317085 36.914055 168.591765 37.188735 
C 168.866445 37.463415 169.239044 37.61775 169.6275 37.61775 
z
" clip-path="url(#p8e6ffffaf5)" style="stroke: #000000; stroke-linejoin: miter"/>
   </g>
   <g id="patch_3">
    <path d="M 198.9225 66.91275 
C 199.310956 66.91275 199.683555 66.758415 199.958235 66.483735 
C 200.232915 66.209055 200.38725 65.836456 200.38725 65.448 
C 200.38725 65.059544 200.232915 64.686945 199.958235 64.412265 
C 199.683555 64.137585 199.310956 63.98325 198.9225 63.98325 
C 198.534044 63.98325 198.161445 64.137585 197.886765 64.412265 
C 197.612085 64.686945 197.45775 65.059544 197.45775 65.448 
C 197.45775 65.836456 197.612085 66.209055 197.886765 66.483735 
C 198.161445 66.758415 198.534044 66.91275 198.9225 66.91275 
z
" clip-path="url(#p8e6ffffaf5)" style="stroke: #000000; stroke-linejoin: miter"/>
   </g>
   <g id="patch_4">
    <path d="M 228.2175 96.20775 
C 228.605956 96.20775 228.978555 96.053415 229.253235 95.778735 
C 229.527915 95.504055 229.68225 95.131456 229.68225 94.743 
C 229.68225 94.354544 229.527915 93.981945 229.253235 93.707265 
C 228.978555 93.432585 228.605956 93.27825 228.2175 93.27825 
C 227.829044 93.27825 227.456445 93.432585 227.181765 93.707265 
C 226.907085 93.981945 226.75275 94.354544 226.75275 94.743 
C 226.75275 95.131456 226.907085 95.504055 227.181765 95.778735 
C 227.456445 96.053415 227.829044 96.20775 228.2175 96.20775 
z
" clip-path="url(#p8e6ffffaf5)" style="stroke: #000000; stroke-linejoin: miter"/>
   </g>
   <g id="line2d_1">
    <path d="M 23.1525 94.743 
L 286.8075 94.743 
" clip-path="url(#p8e6ffffaf5)" style="fill: none; stroke: #000000; stroke-linecap: square"/>
   </g>
   <g id="line2d_2">
    <path d="M 23.1525 65.448 
L 286.8075 65.448 
" clip-path="url(#p8e6ffffaf5)" style="fill: none; stroke: #000000; stroke-linecap: square"/>
   </g>
   <g id="line2d_3">
    <path d="M 23.1525 36.153 
L 286.8075 36.153 
" clip-path="url(#p8e6ffffaf5)" style="fill: none; stroke: #000000; stroke-linecap: square"/>
   </g>
   <g id="line2d_4">
    <path d="M 169.6275 65.448 
L 169.6275 36.153 
" clip-path="url(#p8e6ffffaf5)" style="fill: none; stroke: #000000; stroke-linecap: square"/>
   </g>
   <g id="line2d_5">
    <path d="M 198.9225 94.743 
L 198.9225 65.448 
" clip-path="url(#p8e6ffffaf5)" style="fill: none; stroke: #000000; stroke-linecap: square"/>
   </g>
   <g id="line2d_6">
    <path d="M 228.2175 94.743 
L 228.2175 36.153 
" clip-path="url(#p8e6ffffaf5)" style="fill: none; stroke: #000000; stroke-linecap: square"/>
   </g>
   <g id="text_1">
    <g id="patch_5">
     <path d="M 6.2125 47.283 
L 40.0925 47.283 
L 40.0925 25.023 
L 6.2125 25.023 
L 6.2125 47.283 
z
" style="fill: none"/>
    </g>
    <!-- $|q_0\rangle$ -->
    <g transform="translate(10.2725 39.863) scale(0.14 -0.14)">
     <defs>
      <path id="DejaVuSans-7c" d="M 1344 4891 
L 1344 -1509 
L 813 -1509 
L 813 4891 
L 1344 4891 
z
" transform="scale(0.015625)"/>
      <path id="DejaVuSans-Oblique-71" d="M 2669 525 
Q 2438 222 2123 65 
Q 1809 -91 1428 -91 
Q 897 -91 595 267 
Q 294 625 294 1253 
Q 294 1759 480 2231 
Q 666 2703 1013 3078 
Q 1238 3322 1530 3453 
Q 1822 3584 2144 3584 
Q 2531 3584 2781 3431 
Q 3031 3278 3144 2969 
L 3244 3494 
L 3822 3494 
L 2888 -1319 
L 2309 -1319 
L 2669 525 
z
M 891 1338 
Q 891 875 1084 633 
Q 1278 391 1644 391 
Q 2188 391 2572 911 
Q 2956 1431 2956 2175 
Q 2956 2625 2757 2864 
Q 2559 3103 2188 3103 
Q 1916 3103 1684 2976 
Q 1453 2850 1281 2606 
Q 1100 2350 995 2006 
Q 891 1663 891 1338 
z
" transform="scale(0.015625)"/>
      <path id="DejaVuSans-30" d="M 2034 4250 
Q 1547 4250 1301 3770 
Q 1056 3291 1056 2328 
Q 1056 1369 1301 889 
Q 1547 409 2034 409 
Q 2525 409 2770 889 
Q 3016 1369 3016 2328 
Q 3016 3291 2770 3770 
Q 2525 4250 2034 4250 
z
M 2034 4750 
Q 2819 4750 3233 4129 
Q 3647 3509 3647 2328 
Q 3647 1150 3233 529 
Q 2819 -91 2034 -91 
Q 1250 -91 836 529 
Q 422 1150 422 2328 
Q 422 3509 836 4129 
Q 1250 4750 2034 4750 
z
" transform="scale(0.015625)"/>
      <path id="DejaVuSans-27e9" d="M 1925 2006 
L 1044 -844 
L 513 -844 
L 1394 2006 
L 513 4856 
L 1044 4856 
L 1925 2006 
z
" transform="scale(0.015625)"/>
     </defs>
     <use xlink:href="#DejaVuSans-7c" transform="translate(0 0.578125)"/>
     <use xlink:href="#DejaVuSans-Oblique-71" transform="translate(33.691406 0.578125)"/>
     <use xlink:href="#DejaVuSans-30" transform="translate(97.167969 -15.828125) scale(0.7)"/>
     <use xlink:href="#DejaVuSans-27e9" transform="translate(144.438477 0.578125)"/>
    </g>
   </g>
   <g id="text_2">
    <g id="patch_6">
     <path d="M 6.2125 76.578 
L 40.0925 76.578 
L 40.0925 54.318 
L 6.2125 54.318 
L 6.2125 76.578 
z
" style="fill: none"/>
    </g>
    <!-- $|q_1\rangle$ -->
    <g transform="translate(10.2725 69.158) scale(0.14 -0.14)">
     <defs>
      <path id="DejaVuSans-31" d="M 794 531 
L 1825 531 
L 1825 4091 
L 703 3866 
L 703 4441 
L 1819 4666 
L 2450 4666 
L 2450 531 
L 3481 531 
L 3481 0 
L 794 0 
L 794 531 
z
" transform="scale(0.015625)"/>
     </defs>
     <use xlink:href="#DejaVuSans-7c" transform="translate(0 0.578125)"/>
     <use xlink:href="#DejaVuSans-Oblique-71" transform="translate(33.691406 0.578125)"/>
     <use xlink:href="#DejaVuSans-31" transform="translate(97.167969 -15.828125) scale(0.7)"/>
     <use xlink:href="#DejaVuSans-27e9" transform="translate(144.438477 0.578125)"/>
    </g>
   </g>
   <g id="text_3">
    <g id="patch_7">
     <path d="M 6.2125 105.873 
L 40.0925 105.873 
L 40.0925 83.613 
L 6.2125 83.613 
L 6.2125 105.873 
z
" style="fill: none"/>
    </g>
    <!-- $|q_2\rangle$ -->
    <g transform="translate(10.2725 98.453) scale(0.14 -0.14)">
     <defs>
      <path id="DejaVuSans-32" d="M 1228 531 
L 3431 531 
L 3431 0 
L 469 0 
L 469 531 
Q 828 903 1448 1529 
Q 2069 2156 2228 2338 
Q 2531 2678 2651 2914 
Q 2772 3150 2772 3378 
Q 2772 3750 2511 3984 
Q 2250 4219 1831 4219 
Q 1534 4219 1204 4116 
Q 875 4013 500 3803 
L 500 4441 
Q 881 4594 1212 4672 
Q 1544 4750 1819 4750 
Q 2544 4750 2975 4387 
Q 3406 4025 3406 3419 
Q 3406 3131 3298 2873 
Q 3191 2616 2906 2266 
Q 2828 2175 2409 1742 
Q 1991 1309 1228 531 
z
" transform="scale(0.015625)"/>
     </defs>
     <use xlink:href="#DejaVuSans-7c" transform="translate(0 0.578125)"/>
     <use xlink:href="#DejaVuSans-Oblique-71" transform="translate(33.691406 0.578125)"/>
     <use xlink:href="#DejaVuSans-32" transform="translate(97.167969 -15.828125) scale(0.7)"/>
     <use xlink:href="#DejaVuSans-27e9" transform="translate(144.438477 0.578125)"/>
    </g>
   </g>
   <g id="text_4">
    <g id="patch_8">
     <path d="M 39.694375 46.987687 
L 65.200625 46.987687 
L 65.200625 25.318312 
L 39.694375 25.318312 
z
" style="fill: #ffffff; stroke: #000000; stroke-linejoin: miter"/>
    </g>
    <!-- RY -->
    <g transform="translate(43.754375 40.016125) scale(0.14 -0.14)">
     <defs>
      <path id="DejaVuSans-52" d="M 2841 2188 
Q 3044 2119 3236 1894 
Q 3428 1669 3622 1275 
L 4263 0 
L 3584 0 
L 2988 1197 
Q 2756 1666 2539 1819 
Q 2322 1972 1947 1972 
L 1259 1972 
L 1259 0 
L 628 0 
L 628 4666 
L 2053 4666 
Q 2853 4666 3247 4331 
Q 3641 3997 3641 3322 
Q 3641 2881 3436 2590 
Q 3231 2300 2841 2188 
z
M 1259 4147 
L 1259 2491 
L 2053 2491 
Q 2509 2491 2742 2702 
Q 2975 2913 2975 3322 
Q 2975 3731 2742 3939 
Q 2509 4147 2053 4147 
L 1259 4147 
z
" transform="scale(0.015625)"/>
      <path id="DejaVuSans-59" d="M -13 4666 
L 666 4666 
L 1959 2747 
L 3244 4666 
L 3922 4666 
L 2272 2222 
L 2272 0 
L 1638 0 
L 1638 2222 
L -13 4666 
z
" transform="scale(0.015625)"/>
     </defs>
     <use xlink:href="#DejaVuSans-52"/>
     <use xlink:href="#DejaVuSans-59" transform="translate(63.107422 0)"/>
    </g>
   </g>
   <g id="text_5">
    <g id="patch_9">
     <path d="M 68.023594 46.987687 
L 95.461406 46.987687 
L 95.461406 25.318312 
L 68.023594 25.318312 
z
" style="fill: #ffffff; stroke: #000000; stroke-linejoin: miter"/>
    </g>
    <!-- RZ -->
    <g transform="translate(72.083594 40.016125) scale(0.14 -0.14)">
     <defs>
      <path id="DejaVuSans-5a" d="M 359 4666 
L 4025 4666 
L 4025 4184 
L 1075 531 
L 4097 531 
L 4097 0 
L 288 0 
L 288 481 
L 3238 4134 
L 359 4134 
L 359 4666 
z
" transform="scale(0.015625)"/>
     </defs>
     <use xlink:href="#DejaVuSans-52"/>
     <use xlink:href="#DejaVuSans-5a" transform="translate(69.482422 0)"/>
    </g>
   </g>
   <g id="text_6">
    <g id="patch_10">
     <path d="M 68.989375 76.282688 
L 94.495625 76.282688 
L 94.495625 54.613313 
L 68.989375 54.613313 
z
" style="fill: #ffffff; stroke: #000000; stroke-linejoin: miter"/>
    </g>
    <!-- RY -->
    <g transform="translate(73.049375 69.311125) scale(0.14 -0.14)">
     <use xlink:href="#DejaVuSans-52"/>
     <use xlink:href="#DejaVuSans-59" transform="translate(63.107422 0)"/>
    </g>
   </g>
   <g id="text_7">
    <g id="patch_11">
     <path d="M 97.318594 76.282688 
L 124.756406 76.282688 
L 124.756406 54.613313 
L 97.318594 54.613313 
z
" style="fill: #ffffff; stroke: #000000; stroke-linejoin: miter"/>
    </g>
    <!-- RZ -->
    <g transform="translate(101.378594 69.311125) scale(0.14 -0.14)">
     <use xlink:href="#DejaVuSans-52"/>
     <use xlink:href="#DejaVuSans-5a" transform="translate(69.482422 0)"/>
    </g>
   </g>
   <g id="text_8">
    <g id="patch_12">
     <path d="M 98.284375 105.577688 
L 123.790625 105.577688 
L 123.790625 83.908313 
L 98.284375 83.908313 
z
" style="fill: #ffffff; stroke: #000000; stroke-linejoin: miter"/>
    </g>
    <!-- RY -->
    <g transform="translate(102.344375 98.606125) scale(0.14 -0.14)">
     <use xlink:href="#DejaVuSans-52"/>
     <use xlink:href="#DejaVuSans-59" transform="translate(63.107422 0)"/>
    </g>
   </g>
   <g id="text_9">
    <g id="patch_13">
     <path d="M 126.613594 105.577688 
L 154.051406 105.577688 
L 154.051406 83.908313 
L 126.613594 83.908313 
z
" style="fill: #ffffff; stroke: #000000; stroke-linejoin: miter"/>
    </g>
    <!-- RZ -->
    <g transform="translate(130.673594 98.606125) scale(0.14 -0.14)">
     <use xlink:href="#DejaVuSans-52"/>
     <use xlink:href="#DejaVuSans-5a" transform="translate(69.482422 0)"/>
    </g>
   </g>
   <g id="text_10">
    <g id="patch_14">
     <path d="M 155.908594 76.282688 
L 183.346406 76.282688 
L 183.346406 54.613313 
L 155.908594 54.613313 
z
" style="fill: #ffffff; stroke: #000000; stroke-linejoin: miter"/>
    </g>
    <!-- RX -->
    <g transform="translate(159.968594 69.311125) scale(0.14 -0.14)">
     <defs>
      <path id="DejaVuSans-58" d="M 403 4666 
L 1081 4666 
L 2241 2931 
L 3406 4666 
L 4084 4666 
L 2584 2425 
L 4184 0 
L 3506 0 
L 2194 1984 
L 872 0 
L 191 0 
L 1856 2491 
L 403 4666 
z
" transform="scale(0.015625)"/>
     </defs>
     <use xlink:href="#DejaVuSans-52"/>
     <use xlink:href="#DejaVuSans-58" transform="translate(69.482422 0)"/>
    </g>
   </g>
   <g id="text_11">
    <g id="patch_15">
     <path d="M 185.203594 105.577688 
L 212.641406 105.577688 
L 212.641406 83.908313 
L 185.203594 83.908313 
z
" style="fill: #ffffff; stroke: #000000; stroke-linejoin: miter"/>
    </g>
    <!-- RX -->
    <g transform="translate(189.263594 98.606125) scale(0.14 -0.14)">
     <use xlink:href="#DejaVuSans-52"/>
     <use xlink:href="#DejaVuSans-58" transform="translate(69.482422 0)"/>
    </g>
   </g>
   <g id="text_12">
    <g id="patch_16">
     <path d="M 214.498594 46.987687 
L 241.936406 46.987687 
L 241.936406 25.318312 
L 214.498594 25.318312 
z
" style="fill: #ffffff; stroke: #000000; stroke-linejoin: miter"/>
    </g>
    <!-- RX -->
    <g transform="translate(218.558594 40.016125) scale(0.14 -0.14)">
     <use xlink:href="#DejaVuSans-52"/>
     <use xlink:href="#DejaVuSans-58" transform="translate(69.482422 0)"/>
    </g>
   </g>
  </g>
 </g>
 <defs>
  <clipPath id="p8e6ffffaf5">
   <rect x="37.8" y="21.5055" width="234.36" height="87.885"/>
  </clipPath>
 </defs>
</svg>
