<?xml version="1.0" encoding="UTF-8" standalone="no"?>
<svg
   width="302.4pt"
   height="129.6pt"
   viewBox="0 0 302.4 129.6"
   version="1.1"
   id="svg718"
   sodipodi:docname="example_circuit_qml.svg"
   inkscape:version="1.2.2 (b0a8486541, 2022-12-01)"
   xmlns:inkscape="http://www.inkscape.org/namespaces/inkscape"
   xmlns:sodipodi="http://sodipodi.sourceforge.net/DTD/sodipodi-0.dtd"
   xmlns:xlink="http://www.w3.org/1999/xlink"
   xmlns="http://www.w3.org/2000/svg"
   xmlns:svg="http://www.w3.org/2000/svg"
   xmlns:rdf="http://www.w3.org/1999/02/22-rdf-syntax-ns#"
   xmlns:cc="http://creativecommons.org/ns#"
   xmlns:dc="http://purl.org/dc/elements/1.1/">
  <sodipodi:namedview
     id="namedview720"
     pagecolor="#ffffff"
     bordercolor="#666666"
     borderopacity="1.0"
     inkscape:showpageshadow="2"
     inkscape:pageopacity="0.0"
     inkscape:pagecheckerboard="0"
     inkscape:deskcolor="#d1d1d1"
     inkscape:document-units="pt"
     showgrid="true"
     inkscape:zoom="3.3796295"
     inkscape:cx="191.88494"
     inkscape:cy="70.421921"
     inkscape:window-width="3440"
     inkscape:window-height="1371"
     inkscape:window-x="1080"
     inkscape:window-y="216"
     inkscape:window-maximized="1"
     inkscape:current-layer="layer1">
    <inkscape:grid
       type="xygrid"
       id="grid4245" />
  </sodipodi:namedview>
  <metadata
     id="metadata521">
    <rdf:RDF>
      <cc:Work>
        <dc:type
           rdf:resource="http://purl.org/dc/dcmitype/StillImage" />
        <dc:date>2025-06-04T12:47:51.007102</dc:date>
        <dc:format>image/svg+xml</dc:format>
        <dc:creator>
          <cc:Agent>
            <dc:title>Matplotlib v3.10.1, https://matplotlib.org/</dc:title>
          </cc:Agent>
        </dc:creator>
      </cc:Work>
    </rdf:RDF>
  </metadata>
  <defs
     id="defs525">
    <marker
       style="overflow:visible"
       id="RoundedArrow"
       refX="0"
       refY="0"
       orient="auto-start-reverse"
       inkscape:stockid="RoundedArrow"
       markerWidth="6.1347523"
       markerHeight="5.9304948"
       viewBox="0 0 6.1347524 5.9304951"
       inkscape:isstock="true"
       inkscape:collect="always"
       preserveAspectRatio="xMidYMid">
      <path
         transform="scale(0.7)"
         d="m -0.21114562,-4.1055728 6.42229122,3.21114561 a 1,1 90 0 1 0,1.78885438 L -0.21114562,4.1055728 A 1.236068,1.236068 31.717474 0 1 -2,3 v -6 a 1.236068,1.236068 148.28253 0 1 1.78885438,-1.1055728 z"
         style="fill:context-stroke;fill-rule:evenodd;stroke:none"
         id="path1367" />
    </marker>
    <style
       type="text/css"
       id="style523">*{stroke-linejoin: round; stroke-linecap: butt}</style>
  </defs>
  <defs
     id="defs716">
    <clipPath
       id="p8e6ffffaf5">
      <rect
         x="37.8"
         y="21.5055"
         width="234.36"
         height="87.885"
         id="rect713" />
    </clipPath>
  </defs>
  <g
     inkscape:groupmode="layer"
     id="layer1"
     inkscape:label="Layer 1">
    <g
       id="g3882"
       transform="matrix(0.77214166,0,0,0.77214166,0.32835885,13.817362)">
      <g
         id="figure_1">
        <g
           id="patch_1">
          <path
             d="M 0,129.6 H 302.4 V 0 H 0 Z"
             style="fill:#ffffff"
             id="path527" />
        </g>
        <g
           id="axes_1">
          <g
             id="patch_2">
            <path
               d="m 169.6275,37.61775 c 0.38846,0 0.76105,-0.154335 1.03573,-0.429015 0.27468,-0.27468 0.42902,-0.647279 0.42902,-1.035735 0,-0.388456 -0.15434,-0.761055 -0.42902,-1.035735 -0.27468,-0.27468 -0.64727,-0.429015 -1.03573,-0.429015 -0.38846,0 -0.76106,0.154335 -1.03574,0.429015 -0.27468,0.27468 -0.42901,0.647279 -0.42901,1.035735 0,0.388456 0.15433,0.761055 0.42901,1.035735 0.27468,0.27468 0.64728,0.429015 1.03574,0.429015 z"
               clip-path="url(#p8e6ffffaf5)"
               style="stroke:#000000;stroke-linejoin:miter"
               id="path530" />
          </g>
          <g
             id="patch_3">
            <path
               d="m 198.9225,66.91275 c 0.38846,0 0.76105,-0.154335 1.03573,-0.429015 0.27468,-0.27468 0.42902,-0.647279 0.42902,-1.035735 0,-0.388456 -0.15434,-0.761055 -0.42902,-1.035735 -0.27468,-0.27468 -0.64727,-0.429015 -1.03573,-0.429015 -0.38846,0 -0.76106,0.154335 -1.03574,0.429015 -0.27468,0.27468 -0.42901,0.647279 -0.42901,1.035735 0,0.388456 0.15433,0.761055 0.42901,1.035735 0.27468,0.27468 0.64728,0.429015 1.03574,0.429015 z"
               clip-path="url(#p8e6ffffaf5)"
               style="stroke:#000000;stroke-linejoin:miter"
               id="path533" />
          </g>
          <g
             id="patch_4">
            <path
               d="m 228.2175,96.20775 c 0.38846,0 0.76105,-0.154335 1.03573,-0.429015 0.27468,-0.27468 0.42902,-0.647279 0.42902,-1.035735 0,-0.388456 -0.15434,-0.761055 -0.42902,-1.035735 -0.27468,-0.27468 -0.64727,-0.429015 -1.03573,-0.429015 -0.38846,0 -0.76106,0.154335 -1.03573,0.429015 -0.27469,0.27468 -0.42902,0.647279 -0.42902,1.035735 0,0.388456 0.15433,0.761055 0.42902,1.035735 0.27467,0.27468 0.64727,0.429015 1.03573,0.429015 z"
               clip-path="url(#p8e6ffffaf5)"
               style="stroke:#000000;stroke-linejoin:miter"
               id="path536" />
          </g>
          <g
             id="line2d_1">
            <path
               d="m 23.1525,94.743 h 263.655"
               clip-path="url(#p8e6ffffaf5)"
               style="fill:none;stroke:#000000;stroke-linecap:square"
               id="path539" />
          </g>
          <g
             id="line2d_2">
            <path
               d="m 23.1525,65.448 h 263.655"
               clip-path="url(#p8e6ffffaf5)"
               style="fill:none;stroke:#000000;stroke-linecap:square"
               id="path542" />
          </g>
          <g
             id="line2d_3">
            <path
               d="m 23.1525,36.153 h 263.655"
               clip-path="url(#p8e6ffffaf5)"
               style="fill:none;stroke:#000000;stroke-linecap:square"
               id="path545" />
          </g>
          <g
             id="line2d_4">
            <path
               d="M 169.6275,65.448 V 36.153"
               clip-path="url(#p8e6ffffaf5)"
               style="fill:none;stroke:#000000;stroke-linecap:square"
               id="path548" />
          </g>
          <g
             id="line2d_5">
            <path
               d="M 198.9225,94.743 V 65.448"
               clip-path="url(#p8e6ffffaf5)"
               style="fill:none;stroke:#000000;stroke-linecap:square"
               id="path551" />
          </g>
          <g
             id="line2d_6">
            <path
               d="M 228.2175,94.743 V 36.153"
               clip-path="url(#p8e6ffffaf5)"
               style="fill:none;stroke:#000000;stroke-linecap:square"
               id="path554" />
          </g>
          <g
             id="text_1">
            <g
               id="patch_5">
              <path
                 d="m 6.2125,47.283 h 33.88 v -22.26 h -33.88 z"
                 style="fill:none"
                 id="path557" />
            </g>
            <!-- $|q_0\rangle$ -->
            <g
               transform="matrix(0.14,0,0,-0.14,10.2725,39.863)"
               id="g574">
              <defs
                 id="defs564">
                <path
                   id="DejaVuSans-7c"
                   d="M 1344,4891 V -1509 H 813 v 6400 z"
                   transform="scale(0.015625)" />
                <path
                   id="DejaVuSans-Oblique-71"
                   d="M 2669,525 Q 2438,222 2123,65 1809,-91 1428,-91 897,-91 595,267 294,625 294,1253 q 0,506 186,978 186,472 533,847 225,244 517,375 292,131 614,131 387,0 637,-153 250,-153 363,-462 l 100,525 h 578 L 2888,-1319 H 2309 Z M 891,1338 q 0,-463 193,-705 194,-242 560,-242 544,0 928,520 384,520 384,1264 0,450 -199,689 -198,239 -569,239 -272,0 -504,-127 Q 1453,2850 1281,2606 1100,2350 995,2006 891,1663 891,1338 Z"
                   transform="scale(0.015625)" />
                <path
                   id="DejaVuSans-30"
                   d="m 2034,4250 q -487,0 -733,-480 -245,-479 -245,-1442 0,-959 245,-1439 246,-480 733,-480 491,0 736,480 246,480 246,1439 0,963 -246,1442 -245,480 -736,480 z m 0,500 q 785,0 1199,-621 414,-620 414,-1801 0,-1178 -414,-1799 -414,-620 -1199,-620 -784,0 -1198,620 -414,621 -414,1799 0,1181 414,1801 414,621 1198,621 z"
                   transform="scale(0.015625)" />
                <path
                   id="DejaVuSans-27e9"
                   d="M 1925,2006 1044,-844 H 513 l 881,2850 -881,2850 h 531 z"
                   transform="scale(0.015625)" />
              </defs>
              <use
                 xlink:href="#DejaVuSans-7c"
                 transform="translate(0,0.578125)"
                 id="use566" />
              <use
                 xlink:href="#DejaVuSans-Oblique-71"
                 transform="translate(33.691406,0.578125)"
                 id="use568" />
              <use
                 xlink:href="#DejaVuSans-30"
                 transform="matrix(0.7,0,0,0.7,97.167969,-15.828125)"
                 id="use570" />
              <use
                 xlink:href="#DejaVuSans-27e9"
                 transform="translate(144.43848,0.578125)"
                 id="use572" />
            </g>
          </g>
          <g
             id="text_2">
            <g
               id="patch_6">
              <path
                 d="m 6.2125,76.578 h 33.88 v -22.26 h -33.88 z"
                 style="fill:none"
                 id="path577" />
            </g>
            <!-- $|q_1\rangle$ -->
            <g
               transform="matrix(0.14,0,0,-0.14,10.2725,69.158)"
               id="g591">
              <defs
                 id="defs581">
                <path
                   id="DejaVuSans-31"
                   d="M 794,531 H 1825 V 4091 L 703,3866 v 575 l 1116,225 h 631 V 531 H 3481 V 0 H 794 Z"
                   transform="scale(0.015625)" />
              </defs>
              <use
                 xlink:href="#DejaVuSans-7c"
                 transform="translate(0,0.578125)"
                 id="use583" />
              <use
                 xlink:href="#DejaVuSans-Oblique-71"
                 transform="translate(33.691406,0.578125)"
                 id="use585" />
              <use
                 xlink:href="#DejaVuSans-31"
                 transform="matrix(0.7,0,0,0.7,97.167969,-15.828125)"
                 id="use587" />
              <use
                 xlink:href="#DejaVuSans-27e9"
                 transform="translate(144.43848,0.578125)"
                 id="use589" />
            </g>
          </g>
          <g
             id="text_3">
            <g
               id="patch_7">
              <path
                 d="m 6.2125,105.873 h 33.88 v -22.26 h -33.88 z"
                 style="fill:none"
                 id="path594" />
            </g>
            <!-- $|q_2\rangle$ -->
            <g
               transform="matrix(0.14,0,0,-0.14,10.2725,98.453)"
               id="g608">
              <defs
                 id="defs598">
                <path
                   id="DejaVuSans-32"
                   d="M 1228,531 H 3431 V 0 H 469 v 531 q 359,372 979,998 621,627 780,809 303,340 423,576 121,236 121,464 0,372 -261,606 -261,235 -680,235 -297,0 -627,-103 -329,-103 -704,-313 v 638 q 381,153 712,231 332,78 607,78 725,0 1156,-363 431,-362 431,-968 0,-288 -108,-546 -107,-257 -392,-607 -78,-91 -497,-524 Q 1991,1309 1228,531 Z"
                   transform="scale(0.015625)" />
              </defs>
              <use
                 xlink:href="#DejaVuSans-7c"
                 transform="translate(0,0.578125)"
                 id="use600" />
              <use
                 xlink:href="#DejaVuSans-Oblique-71"
                 transform="translate(33.691406,0.578125)"
                 id="use602" />
              <use
                 xlink:href="#DejaVuSans-32"
                 transform="matrix(0.7,0,0,0.7,97.167969,-15.828125)"
                 id="use604" />
              <use
                 xlink:href="#DejaVuSans-27e9"
                 transform="translate(144.43848,0.578125)"
                 id="use606" />
            </g>
          </g>
          <g
             id="text_4">
            <g
               id="patch_8">
              <path
                 d="m 39.694375,46.987687 h 25.50625 V 25.318312 h -25.50625 z"
                 style="fill:#ffffff;stroke:#000000;stroke-linejoin:miter"
                 id="path611" />
            </g>
            <!-- RY -->
            <g
               transform="matrix(0.14,0,0,-0.14,43.754375,40.016125)"
               id="g622">
              <defs
                 id="defs616">
                <path
                   id="DejaVuSans-52"
                   d="m 2841,2188 q 203,-69 395,-294 192,-225 386,-619 L 4263,0 h -679 l -596,1197 q -232,469 -449,622 -217,153 -592,153 H 1259 V 0 H 628 v 4666 h 1425 q 800,0 1194,-335 394,-334 394,-1009 0,-441 -205,-732 -205,-290 -595,-402 z M 1259,4147 V 2491 h 794 q 456,0 689,211 233,211 233,620 0,409 -233,617 -233,208 -689,208 z"
                   transform="scale(0.015625)" />
                <path
                   id="DejaVuSans-59"
                   d="M -13,4666 H 666 L 1959,2747 3244,4666 h 678 L 2272,2222 V 0 h -634 v 2222 z"
                   transform="scale(0.015625)" />
              </defs>
              <use
                 xlink:href="#DejaVuSans-52"
                 id="use618" />
              <use
                 xlink:href="#DejaVuSans-59"
                 transform="translate(63.107422)"
                 id="use620" />
            </g>
          </g>
          <g
             id="text_5">
            <g
               id="patch_9">
              <path
                 d="M 68.023594,46.987687 H 95.461406 V 25.318312 H 68.023594 Z"
                 style="fill:#ffffff;stroke:#000000;stroke-linejoin:miter"
                 id="path625" />
            </g>
            <!-- RZ -->
            <g
               transform="matrix(0.14,0,0,-0.14,72.083594,40.016125)"
               id="g635">
              <defs
                 id="defs629">
                <path
                   id="DejaVuSans-5a"
                   d="M 359,4666 H 4025 V 4184 L 1075,531 H 4097 V 0 H 288 V 481 L 3238,4134 H 359 Z"
                   transform="scale(0.015625)" />
              </defs>
              <use
                 xlink:href="#DejaVuSans-52"
                 id="use631" />
              <use
                 xlink:href="#DejaVuSans-5a"
                 transform="translate(69.482422)"
                 id="use633" />
            </g>
          </g>
          <g
             id="text_6">
            <g
               id="patch_10">
              <path
                 d="m 68.989375,76.282688 h 25.50625 V 54.613313 h -25.50625 z"
                 style="fill:#ffffff;stroke:#000000;stroke-linejoin:miter"
                 id="path638" />
            </g>
            <!-- RY -->
            <g
               transform="matrix(0.14,0,0,-0.14,73.049375,69.311125)"
               id="g645">
              <use
                 xlink:href="#DejaVuSans-52"
                 id="use641" />
              <use
                 xlink:href="#DejaVuSans-59"
                 transform="translate(63.107422)"
                 id="use643" />
            </g>
          </g>
          <g
             id="text_7">
            <g
               id="patch_11">
              <path
                 d="M 97.318594,76.282688 H 124.75641 V 54.613313 H 97.318594 Z"
                 style="fill:#ffffff;stroke:#000000;stroke-linejoin:miter"
                 id="path648" />
            </g>
            <!-- RZ -->
            <g
               transform="matrix(0.14,0,0,-0.14,101.37859,69.311125)"
               id="g655">
              <use
                 xlink:href="#DejaVuSans-52"
                 id="use651" />
              <use
                 xlink:href="#DejaVuSans-5a"
                 transform="translate(69.482422)"
                 id="use653" />
            </g>
          </g>
          <g
             id="text_8">
            <g
               id="patch_12">
              <path
                 d="M 98.284375,105.57769 H 123.79063 V 83.908313 H 98.284375 Z"
                 style="fill:#ffffff;stroke:#000000;stroke-linejoin:miter"
                 id="path658" />
            </g>
            <!-- RY -->
            <g
               transform="matrix(0.14,0,0,-0.14,102.34438,98.606125)"
               id="g665">
              <use
                 xlink:href="#DejaVuSans-52"
                 id="use661" />
              <use
                 xlink:href="#DejaVuSans-59"
                 transform="translate(63.107422)"
                 id="use663" />
            </g>
          </g>
          <g
             id="text_9">
            <g
               id="patch_13">
              <path
                 d="m 126.61359,105.57769 h 27.43782 V 83.908313 h -27.43782 z"
                 style="fill:#ffffff;stroke:#000000;stroke-linejoin:miter"
                 id="path668" />
            </g>
            <!-- RZ -->
            <g
               transform="matrix(0.14,0,0,-0.14,130.67359,98.606125)"
               id="g675">
              <use
                 xlink:href="#DejaVuSans-52"
                 id="use671" />
              <use
                 xlink:href="#DejaVuSans-5a"
                 transform="translate(69.482422)"
                 id="use673" />
            </g>
          </g>
          <g
             id="text_10">
            <g
               id="patch_14">
              <path
                 d="m 155.90859,76.282688 h 27.43782 V 54.613313 h -27.43782 z"
                 style="fill:#ffffff;stroke:#000000;stroke-linejoin:miter"
                 id="path678" />
            </g>
            <!-- RX -->
            <g
               transform="matrix(0.14,0,0,-0.14,159.96859,69.311125)"
               id="g688">
              <defs
                 id="defs682">
                <path
                   id="DejaVuSans-58"
                   d="m 403,4666 h 678 L 2241,2931 3406,4666 h 678 L 2584,2425 4184,0 H 3506 L 2194,1984 872,0 H 191 l 1665,2491 z"
                   transform="scale(0.015625)" />
              </defs>
              <use
                 xlink:href="#DejaVuSans-52"
                 id="use684" />
              <use
                 xlink:href="#DejaVuSans-58"
                 transform="translate(69.482422)"
                 id="use686" />
            </g>
          </g>
          <g
             id="text_11">
            <g
               id="patch_15">
              <path
                 d="m 185.20359,105.57769 h 27.43782 V 83.908313 h -27.43782 z"
                 style="fill:#ffffff;stroke:#000000;stroke-linejoin:miter"
                 id="path691" />
            </g>
            <!-- RX -->
            <g
               transform="matrix(0.14,0,0,-0.14,189.26359,98.606125)"
               id="g698">
              <use
                 xlink:href="#DejaVuSans-52"
                 id="use694" />
              <use
                 xlink:href="#DejaVuSans-58"
                 transform="translate(69.482422)"
                 id="use696" />
            </g>
          </g>
          <g
             id="text_12">
            <g
               id="patch_16">
              <path
                 d="m 214.49859,46.987687 h 27.43782 V 25.318312 h -27.43782 z"
                 style="fill:#ffffff;stroke:#000000;stroke-linejoin:miter"
                 id="path701" />
            </g>
            <!-- RX -->
            <g
               transform="matrix(0.14,0,0,-0.14,218.55859,40.016125)"
               id="g708">
              <use
                 xlink:href="#DejaVuSans-52"
                 id="use704" />
              <use
                 xlink:href="#DejaVuSans-58"
                 transform="translate(69.482422)"
                 id="use706" />
            </g>
          </g>
        </g>
      </g>
      <path
         style="opacity:1;fill:#ffffff;fill-opacity:0.910615;stroke:#ffffff;stroke-width:0.0234439;stroke-linecap:round;stroke-linejoin:round;stroke-dasharray:none;stroke-opacity:0.792267;paint-order:markers fill stroke"
         d="m 226.88737,92.352462 c 0.0133,-0.02307 1.10009,-1.652067 2.41503,-3.619995 l 2.39081,-3.578051 -2.09428,-3.141308 c -1.15185,-1.727719 -2.09427,-3.148894 -2.09427,-3.158167 0,-0.0093 0.42955,-0.01686 0.95457,-0.01686 h 0.95457 l 1.68395,2.516645 c 0.92617,1.384154 1.69327,2.515953 1.70468,2.515109 0.0114,-8.46e-4 0.77696,-1.129559 1.70123,-2.508256 l 1.6805,-2.50672 0.96198,-0.0089 c 0.52909,-0.0049 0.96198,-10e-4 0.96198,0.0086 0,0.0096 -0.9741,1.473453 -2.16466,3.252983 l -2.16466,3.235509 2.31566,3.509819 c 1.27361,1.9304 2.31566,3.517194 2.31566,3.526208 0,0.009 -0.43342,0.01238 -0.96315,0.0075 l -0.96316,-0.0089 -1.88065,-2.842275 c -1.03437,-1.563251 -1.89828,-2.859831 -1.91982,-2.881289 -0.0298,-0.0297 -0.49743,0.651023 -1.95827,2.850663 l -1.91912,2.889679 h -0.9714 c -0.76767,0 -0.96632,-0.0088 -0.94718,-0.04194 z"
         id="path3595"
         transform="scale(0.75)" />
      <path
         style="opacity:1;fill:#ffffff;fill-opacity:0.910615;stroke:#ffffff;stroke-width:0.0234439;stroke-linecap:round;stroke-linejoin:round;stroke-dasharray:none;stroke-opacity:0.792267;paint-order:markers fill stroke"
         d="m 215.12277,85.616243 v -6.778162 h 2.44781 c 2.00735,0 2.51907,0.0093 2.84381,0.05155 2.07366,0.269955 3.20527,1.298584 3.43481,3.122228 0.0605,0.480566 0.0243,1.396185 -0.0693,1.753497 -0.28741,1.097187 -0.93015,1.797268 -2.00879,2.188024 l -0.21369,0.07742 0.23047,0.116103 c 0.48784,0.245755 0.88646,0.637541 1.33782,1.314883 0.37005,0.555318 0.49687,0.793173 1.61472,3.028362 l 0.95235,1.904261 h -0.97007 -0.97006 l -0.92259,-1.860073 c -0.50742,-1.023039 -1.00946,-2.008306 -1.11563,-2.18948 -0.59227,-1.010645 -0.99592,-1.370341 -1.78723,-1.592645 -0.24007,-0.06744 -0.3513,-0.07338 -1.62508,-0.0867 l -1.36738,-0.0143 v 2.871603 2.871603 h -0.90599 -0.90599 z m 4.4964,-0.469416 c 0.51611,-0.03844 0.8715,-0.126057 1.23408,-0.304244 0.50778,-0.249543 0.8803,-0.717997 1.03916,-1.306766 0.0458,-0.169885 0.0588,-0.351652 0.0588,-0.822103 0,-0.53927 -0.008,-0.630964 -0.0785,-0.85566 -0.18319,-0.586944 -0.52047,-0.997556 -1.01628,-1.237247 -0.56407,-0.27269 -0.6479,-0.283147 -2.38653,-0.297707 l -1.53515,-0.01286 v 2.41252 c 0,1.326886 0.0101,2.422587 0.0224,2.434891 0.0337,0.0337 2.18153,0.02496 2.66205,-0.01083 z"
         id="path3597"
         transform="scale(0.75)" />
      <path
         style="opacity:1;fill:#ffffff;fill-opacity:0.910615;stroke:#ffffff;stroke-width:0.0234439;stroke-linecap:round;stroke-linejoin:round;stroke-dasharray:none;stroke-opacity:0.792267;paint-order:markers fill stroke"
         d="m 215.13849,92.35302 c -0.009,-0.02338 -0.0123,-3.070026 -0.008,-6.770332 l 0.009,-6.727829 2.48309,0.0039 c 2.61417,0.0041 2.79239,0.01261 3.42443,0.163001 0.8452,0.201115 1.39791,0.486923 1.87809,0.971177 0.70238,0.708344 1.00812,1.72706 0.92183,3.071552 -0.0397,0.619028 -0.11837,0.929858 -0.35495,1.402944 -0.3451,0.690088 -0.91642,1.181028 -1.70855,1.468174 -0.0923,0.03345 -0.18058,0.07189 -0.19624,0.08541 -0.0157,0.01353 0.0976,0.08957 0.25167,0.168996 0.48173,0.248322 0.99818,0.815082 1.54108,1.691188 0.08,0.129188 0.6303,1.197504 1.22278,2.374035 l 1.07724,2.139148 h -0.95984 -0.95984 l -0.7093,-1.434488 c -1.35821,-2.746882 -1.56728,-3.113612 -2.05377,-3.602615 -0.45439,-0.456747 -0.94325,-0.660651 -1.5962,-0.665779 -1.22784,-0.0096 -2.20164,-0.03171 -2.32351,-0.05266 l -0.14242,-0.02448 -0.009,2.881622 -0.009,2.881622 -0.88166,0.0089 c -0.68724,0.007 -0.88523,-4.27e-4 -0.89782,-0.03356 z m 4.6149,-7.207698 c 0.45242,-0.0476 0.70953,-0.117252 1.06909,-0.289611 0.38887,-0.186411 0.69732,-0.477568 0.88284,-0.833342 0.14308,-0.274393 0.24228,-0.593075 0.22034,-0.707838 -0.008,-0.04439 -0.005,-0.08071 0.008,-0.08071 0.0131,0 0.0203,-0.275573 0.0159,-0.612383 -0.007,-0.52097 -0.0183,-0.641312 -0.0774,-0.806176 -0.24952,-0.696768 -0.68433,-1.118775 -1.41464,-1.373005 -0.26529,-0.09235 -0.58646,-0.107384 -2.13076,-0.09973 -0.92935,0.0046 -1.35943,-0.0041 -1.32543,-0.02686 0.0432,-0.02889 0.042,-0.03375 -0.008,-0.03419 -0.0554,-4.85e-4 -0.0587,0.138305 -0.0587,2.44902 v 2.449534 l 1.24993,-5.8e-4 c 0.68747,-3.36e-4 1.39339,-0.01568 1.56871,-0.03412 z"
         id="path3599"
         transform="scale(0.75)" />
      <path
         style="opacity:1;fill:#ffffff;fill-opacity:0.910615;stroke:#ffffff;stroke-width:0.0234439;stroke-linecap:round;stroke-linejoin:round;stroke-dasharray:none;stroke-opacity:0.792267;paint-order:markers fill stroke"
         d="M 208.54593,87.260451 V 73.502795 h 17.61652 17.61651 v 13.757656 13.757659 h -17.61651 -17.61652 z m 8.42237,2.298535 v -2.868974 l 0.3775,-0.0046 c 0.4299,-0.0052 0.39567,-0.02044 -0.0839,-0.03734 l -0.32716,-0.01153 v 2.878375 2.878375 l -0.91438,0.0095 -0.91438,0.0095 0.93116,0.0078 0.93115,0.0078 z m 8.75793,2.852086 c 0,-0.03094 -1.97732,-3.971597 -2.151,-4.286783 -0.29079,-0.52771 -0.65783,-1.051402 -0.95794,-1.366763 -0.31744,-0.333583 -0.51751,-0.492532 -0.79804,-0.634035 l -0.18646,-0.09405 0.13369,-0.04005 c 0.46932,-0.140613 0.93242,-0.433894 1.29722,-0.821532 0.4689,-0.498255 0.70542,-1.015371 0.81552,-1.783033 0.0447,-0.311524 0.044,-1.087925 -0.001,-1.412953 -0.21936,-1.577163 -1.11187,-2.569216 -2.66501,-2.962259 -0.733,-0.185495 -0.70917,-0.184204 -3.50653,-0.190013 l -2.60053,-0.0054 2.48309,0.02514 c 2.58989,0.02621 2.88139,0.04167 3.46862,0.183856 0.84242,0.203981 1.39014,0.488417 1.86745,0.96977 0.70351,0.709481 1.01563,1.755522 0.92107,3.086934 -0.0405,0.570777 -0.11464,0.888262 -0.2993,1.282304 -0.22914,0.488991 -0.57247,0.901247 -0.98568,1.183591 -0.13977,0.0955 -0.54747,0.298388 -0.87809,0.436968 -0.0976,0.04093 -0.0985,0.04338 -0.0336,0.09146 0.0367,0.02717 0.15462,0.09644 0.26199,0.153935 0.23268,0.124592 0.58984,0.447784 0.85862,0.77696 0.48096,0.589019 0.7434,1.061962 2.15732,3.887702 l 0.75136,1.501598 h -0.95807 -0.95807 L 222.857,90.579803 c -0.49815,-0.998031 -0.91647,-1.821499 -0.92959,-1.829929 -0.0191,-0.01226 1.05284,2.181152 1.67038,3.418034 l 0.12984,0.260053 h 0.9993 c 0.54961,0 0.9993,-0.0076 0.9993,-0.01689 z m 4.99982,-2.852519 c 1.05191,-1.578174 1.91256,-2.885692 1.91256,-2.905596 0,-0.0199 0.29173,0.406862 0.64828,0.948369 0.35656,0.541507 1.21984,1.849025 1.9184,2.905596 l 1.27012,1.921039 h 1.00091 c 0.5505,0 1.00091,-0.0059 1.00091,-0.0131 0,-0.0072 -1.04845,-1.601906 -2.32988,-3.543781 l -2.32988,-3.530682 1.42947,-2.135446 c 0.78621,-1.174495 1.76671,-2.637285 2.17888,-3.250644 0.41218,-0.613358 0.74941,-1.122979 0.74941,-1.13249 0,-0.0095 -0.4497,-0.01729 -0.99934,-0.01729 h -0.99934 l -1.69001,2.517741 -1.69,2.517741 -1.67832,-2.517741 -1.67833,-2.517741 h -1.00117 c -0.55065,0 -1.00117,0.0081 -1.00117,0.01806 0,0.0099 0.94374,1.428081 2.0972,3.151445 1.15346,1.723364 2.0972,3.151008 2.0972,3.172542 0,0.02154 -1.07666,1.649782 -2.39258,3.618328 -1.31592,1.968547 -2.404,3.598051 -2.41796,3.62112 -0.0201,0.03319 0.18521,0.04194 0.98336,0.04194 h 1.00873 z m -8.95926,-1.115279 c -0.35207,-0.654142 -0.76367,-1.150709 -1.17189,-1.413783 -0.23645,-0.152386 -0.63404,-0.292274 -0.91369,-0.321472 -0.13163,-0.01374 -0.0999,-0.0013 0.11894,0.04686 0.36113,0.07939 0.78071,0.275554 1.01687,0.475411 0.29995,0.253855 0.72315,0.828986 0.97899,1.330479 0.04,0.07841 0.0813,0.142557 0.0917,0.142557 0.0104,0 -0.044,-0.117024 -0.12096,-0.260053 z m -3.59932,-3.288402 -1.20004,-0.0093 0.009,-2.415558 c 0.005,-1.328557 -0.002,-2.415557 -0.0163,-2.415555 -0.0139,2e-6 -0.0252,1.094745 -0.0252,2.432761 v 2.432756 l 1.21638,-0.008 1.21638,-0.008 z m 1.57678,-0.03289 c -0.0696,-0.0073 -0.17531,-0.0071 -0.23488,2.69e-4 -0.0596,0.0074 -0.003,0.01336 0.12658,0.01321 0.12919,-1.35e-4 0.17792,-0.0062 0.1083,-0.01348 z m 0.508,-0.06042 c 0.1175,-0.0277 0.2383,-0.06636 0.26844,-0.08593 0.0461,-0.02989 0.0441,-0.03194 -0.0123,-0.01284 -0.0369,0.0125 -0.19545,0.05033 -0.35233,0.08406 -0.15687,0.03373 -0.24747,0.06217 -0.20133,0.0632 0.0461,0.001 0.18003,-0.0208 0.29753,-0.0485 z m 1.06963,-0.563257 c 0.11522,-0.110511 0.25682,-0.274677 0.31466,-0.364812 0.11766,-0.183356 0.29779,-0.670185 0.29565,-0.799007 -7.7e-4,-0.04614 -0.0302,0.02599 -0.0654,0.160276 -0.10612,0.404992 -0.25161,0.667482 -0.51678,0.932297 -0.13071,0.130542 -0.27541,0.2632 -0.32155,0.294795 l -0.0839,0.05745 0.0839,-0.04003 c 0.0461,-0.02202 0.17816,-0.130451 0.29339,-0.240963 z m 0.6028,-2.432809 c -0.019,-0.160317 -0.1752,-0.59605 -0.22464,-0.626608 -0.0142,-0.0087 0.0121,0.07788 0.0584,0.192509 0.0463,0.114627 0.10074,0.295567 0.12099,0.402089 0.0447,0.235277 0.0715,0.254266 0.0452,0.03201 z m -0.31546,-0.780846 c -0.23635,-0.404049 -0.93618,-0.848264 -1.40055,-0.888998 -0.15215,-0.01335 -0.14199,-0.0077 0.0965,0.05342 0.39352,0.100887 0.72351,0.272729 0.9744,0.507427 0.11936,0.111651 0.24883,0.254479 0.28771,0.317395 0.0882,0.142691 0.12459,0.152027 0.042,0.01076 z"
         id="path3601"
         transform="scale(0.75)" />
      <path
         style="opacity:1;fill:#ffffff;fill-opacity:0.910615;stroke:#ffffff;stroke-width:0.0234439;stroke-linecap:round;stroke-linejoin:round;stroke-dasharray:none;stroke-opacity:0.792267;paint-order:markers fill stroke"
         d="M 208.54593,87.260451 V 73.502795 h 17.61652 17.61651 v 13.757656 13.757659 h -17.61651 -17.61652 z m 8.42237,2.300137 v -2.867374 l 0.20973,-0.01191 0.20972,-0.01191 -0.2265,-0.0065 -0.2265,-0.0065 v 2.868183 2.868182 l -0.57883,0.01003 -0.57883,0.01003 0.59561,0.0075 0.5956,0.0075 z m 8.75793,2.850458 c 0,-0.0286 -1.58172,-3.180936 -1.94457,-3.875495 -0.68758,-1.31614 -1.29882,-2.070974 -1.93945,-2.395092 -0.24546,-0.124182 -0.21993,-0.0887 0.0482,0.06697 0.44282,0.257113 0.98441,0.849188 1.41914,1.55141 0.17451,0.281887 1.09985,2.070069 1.93431,3.737966 l 0.44908,0.897603 h -0.97163 -0.97163 L 223.0795,91.03542 c -0.3686,-0.747444 -0.67766,-1.358988 -0.6868,-1.358988 -0.009,0 0.28795,0.618922 0.6602,1.375382 l 0.67682,1.375382 0.99827,3.82e-4 c 0.54905,2.02e-4 0.99827,-0.0072 0.99827,-0.01653 z m 4.87807,-2.675895 c 0.98316,-1.481045 1.83907,-2.779633 1.902,-2.885752 0.0629,-0.106118 0.12446,-0.192943 0.13672,-0.192943 0.0123,0 0.88075,1.298448 1.92998,2.885439 l 1.90769,2.885439 1.00025,3.02e-4 c 0.79132,2.35e-4 0.99499,-0.0084 0.97507,-0.04163 -0.0138,-0.02307 -1.06415,-1.617342 -2.33401,-3.542829 l -2.30884,-3.500886 2.15834,-3.226944 c 1.18709,-1.774819 2.16944,-3.245819 2.18301,-3.268888 0.0195,-0.03317 -0.18445,-0.04182 -0.97557,-0.04135 l -1.00025,5.94e-4 -1.67776,2.502025 c -0.92277,1.376114 -1.68532,2.506714 -1.69454,2.512444 -0.009,0.0057 -0.77177,-1.119785 -1.69454,-2.501146 l -1.67777,-2.511564 -1.00025,-0.0015 c -0.79152,-0.0012 -0.99501,0.0073 -0.97514,0.04047 0.0138,0.02307 0.95845,1.442396 2.09919,3.154059 1.14074,1.711662 2.07407,3.127328 2.07407,3.145924 0,0.0186 -1.07316,1.643441 -2.38479,3.610768 -1.31164,1.967326 -2.3929,3.598058 -2.4028,3.623849 -0.0152,0.0395 0.13883,0.04689 0.97719,0.04689 h 0.99518 l 1.78757,-2.692809 z m -9.17315,-1.83715 c -0.0394,-0.05537 -0.0792,-0.100666 -0.0884,-0.100666 -0.009,0 0.0155,0.0453 0.0549,0.100666 0.0394,0.05537 0.0792,0.100666 0.0885,0.100666 0.009,0 -0.0155,-0.0453 -0.0549,-0.100666 z m -0.10066,-0.14689 c 0,-0.007 -0.0264,-0.03339 -0.0587,-0.05872 -0.0532,-0.04174 -0.0544,-0.04055 -0.0127,0.01267 0.0438,0.0559 0.0714,0.07367 0.0714,0.04605 z m -0.10067,-0.132481 c 0,-0.006 -0.0415,-0.04753 -0.0923,-0.09228 l -0.0923,-0.08135 0.0814,0.09228 c 0.076,0.08625 0.1032,0.107665 0.1032,0.08135 z m -0.63755,-0.575723 c 0,-0.02035 -0.32394,-0.185684 -0.3596,-0.183536 -0.0145,8.69e-4 0.0568,0.04546 0.15827,0.09908 0.20599,0.108822 0.20133,0.10687 0.20133,0.08445 z m -0.61308,-0.272503 c -0.0111,-0.01115 -0.0401,-0.01234 -0.0643,-0.0026 -0.0268,0.01071 -0.0188,0.01866 0.0203,0.02027 0.0354,0.0015 0.0552,-0.0065 0.044,-0.01762 z m -0.13422,-0.03355 c -0.0111,-0.01115 -0.0401,-0.01234 -0.0643,-0.0026 -0.0268,0.01071 -0.0188,0.01866 0.0203,0.02027 0.0354,0.0015 0.0552,-0.0065 0.044,-0.01762 z m 2.30762,-0.91477 c 1.17723,-0.569427 1.76072,-1.599379 1.76146,-3.109246 0.001,-2.107416 -1.00378,-3.365957 -3.01142,-3.771856 -0.58128,-0.117522 -1.05637,-0.13596 -3.34711,-0.1299 l -2.21465,0.0059 2.39921,0.02263 c 2.50739,0.02365 2.7273,0.03574 3.34941,0.184162 1.69219,0.403728 2.59913,1.439327 2.76013,3.151667 0.0521,0.55358 -7.8e-4,1.298352 -0.12169,1.715596 -0.2661,0.918227 -0.88194,1.60996 -1.75989,1.976742 -0.23932,0.09998 -0.26963,0.117861 -0.19854,0.11714 0.0262,-2.69e-4 0.19854,-0.07352 0.38309,-0.16279 z m -4.52157,-0.667178 -0.66272,-0.0099 -0.008,-2.272659 -0.008,-2.27266 -0.009,2.248203 c -0.005,1.236511 -0.002,2.267077 0.007,2.290146 0.0122,0.03196 0.17396,0.04013 0.6798,0.03431 l 0.66377,-0.0076 z m 4.25927,-1.692486 c -0.0107,-0.02677 -0.0187,-0.01882 -0.0203,0.02027 -0.001,0.03537 0.006,0.05519 0.0176,0.04404 0.0111,-0.01115 0.0123,-0.04009 0.003,-0.06432 z m 0.0336,-1.375765 c -0.0107,-0.02677 -0.0187,-0.01882 -0.0203,0.02027 -0.001,0.03537 0.006,0.05519 0.0176,0.04404 0.0112,-0.01115 0.0123,-0.04009 0.003,-0.06431 z m -0.0397,-0.19504 c -0.0302,-0.137615 -0.0573,-0.110506 -0.0294,0.02936 0.0118,0.05895 0.0284,0.100196 0.037,0.09165 0.009,-0.0085 0.005,-0.063 -0.008,-0.121008 z m -0.0798,-0.223982 c -0.0396,-0.06802 -0.0491,-0.04625 -0.0167,0.03813 0.0115,0.02999 0.028,0.04746 0.0366,0.03882 0.009,-0.0086 -3e-4,-0.04327 -0.0199,-0.07695 z m -0.27254,-0.492256 c 0,-0.0064 -0.034,-0.04034 -0.0755,-0.0755 l -0.0755,-0.06392 0.0639,0.0755 c 0.0601,0.07095 0.0871,0.09077 0.0871,0.06392 z m -0.23489,-0.234886 c 0,-0.0064 -0.034,-0.04034 -0.0755,-0.0755 l -0.0755,-0.06392 0.0639,0.0755 c 0.0601,0.07095 0.0871,0.09077 0.0871,0.06392 z m -0.73339,-0.44571 c -0.0619,-0.02703 -0.1601,-0.05641 -0.21811,-0.06529 -0.0622,-0.0095 -0.0297,0.01038 0.0791,0.04844 0.21898,0.07663 0.29797,0.0862 0.13904,0.01684 z m -5.29816,-1.678918 c -0.0231,-0.0093 -0.0608,-0.0093 -0.0839,0 -0.0231,0.0093 -0.004,0.01693 0.0419,0.01693 0.0461,0 0.065,-0.0076 0.0419,-0.01693 z"
         id="path3603"
         transform="scale(0.75)" />
      <path
         style="opacity:1;fill:#ffffff;fill-opacity:0.910615;stroke:#ffffff;stroke-width:0.0234439;stroke-linecap:round;stroke-linejoin:round;stroke-dasharray:none;stroke-opacity:0.792267;paint-order:markers fill stroke"
         d="M 208.54593,87.260451 V 73.502795 h 17.61652 17.61651 v 13.757656 13.757659 h -17.61651 -17.61652 z m 8.42237,2.301332 c 0,-2.261546 0.009,-2.869749 0.042,-2.883104 0.0251,-0.01011 0.0183,-0.01799 -0.0168,-0.01957 -0.0555,-0.0025 -0.0587,0.155233 -0.0587,2.864299 v 2.86695 l -0.12583,0.01316 -0.12583,0.01316 0.14261,0.0056 0.1426,0.0056 z m 7.9526,2.842952 c -0.62173,-0.02401 -1.2004,-0.02496 -1.1861,-0.0019 0.009,0.01384 0.33561,0.02213 0.7267,0.01841 0.39108,-0.0037 0.59782,-0.01113 0.4594,-0.01647 z m 5.60793,-2.573442 c 0.94814,-1.428168 1.81123,-2.735401 1.91797,-2.904962 l 0.19408,-0.308293 0.99771,1.50403 c 0.54873,0.827216 1.41269,2.13386 1.9199,2.903654 l 0.9222,1.399626 0.98508,0.0013 c 0.85265,0.0011 0.98254,-0.0053 0.96618,-0.04795 -0.0226,-0.05884 -0.15554,-0.261705 -2.66975,-4.07328 l -1.95571,-2.964883 2.15077,-3.214812 c 1.18292,-1.768147 2.15995,-3.23875 2.17118,-3.268007 0.0184,-0.04783 -0.0789,-0.05303 -0.96467,-0.05161 l -0.98508,0.0016 -1.67431,2.499348 c -0.92087,1.374642 -1.68503,2.505977 -1.69814,2.514078 -0.0131,0.0081 -0.77721,-1.116901 -1.698,-2.500005 l -1.67416,-2.514732 -0.98508,-9.33e-4 c -0.83504,-7.92e-4 -0.98231,0.0063 -0.96689,0.04647 0.01,0.02607 0.94781,1.442923 2.08402,3.148559 1.1362,1.705636 2.06566,3.122567 2.06546,3.148736 -2e-4,0.02617 -1.07744,1.663265 -2.39387,3.637992 -1.89725,2.845971 -2.38245,3.595141 -2.34012,3.61322 0.0294,0.01255 0.47053,0.02387 0.98037,0.02517 l 0.92697,0.0024 z m -6.73154,-1.253798 c -0.15956,-0.309128 -0.3065,-0.57715 -0.32654,-0.595606 -0.02,-0.01845 0.0321,0.09479 0.11594,0.251665 0.0838,0.15687 0.22215,0.424893 0.30741,0.595605 0.0853,0.170713 0.16364,0.310387 0.17416,0.310387 0.0105,0 -0.11142,-0.252923 -0.27097,-0.562051 z m -0.41945,-0.771771 c -0.039,-0.06921 -0.10217,-0.163582 -0.14035,-0.20972 l -0.0694,-0.08389 0.0587,0.09777 c 0.0323,0.05377 0.0884,0.148147 0.12474,0.209721 0.0909,0.154083 0.11413,0.141851 0.0263,-0.01388 z m -0.33805,-0.510712 c -0.30883,-0.440268 -0.79576,-0.935016 -1.0382,-1.054869 -0.0277,-0.01369 -0.005,0.0095 0.0503,0.05155 0.22782,0.172982 0.67545,0.635078 0.88154,0.910035 0.25132,0.335299 0.31572,0.391799 0.10632,0.09328 z m -1.10531,-1.09069 c 0,-0.0088 -0.0453,-0.03934 -0.10066,-0.06797 -0.1262,-0.06526 -0.13384,-0.03691 -0.008,0.03114 0.10545,0.05721 0.10905,0.05842 0.10905,0.03683 z m 0,-0.286081 c 0.0277,-0.01789 0.0352,-0.03253 0.0168,-0.03253 -0.0185,0 -0.0562,0.01464 -0.0839,0.03253 -0.0277,0.01789 -0.0352,0.03253 -0.0168,0.03253 0.0185,0 0.0562,-0.01464 0.0839,-0.03253 z m 0.26956,-0.118009 c 0.0917,-0.04645 0.16666,-0.092 0.16666,-0.101231 0,-0.01503 -0.33208,0.141751 -0.36631,0.172944 -0.0396,0.03608 0.0515,0.0034 0.19965,-0.07171 z m 0.44607,-0.281971 c 0.0216,-0.02621 -0.0248,-0.0053 -0.10324,0.0464 -0.0784,0.05173 -0.14261,0.10045 -0.14261,0.108268 0,0.0242 0.20422,-0.104277 0.24585,-0.154671 z m 0.53761,-0.500422 c 0.19661,-0.241008 0.39034,-0.571372 0.47385,-0.808069 0.0836,-0.236812 0.037,-0.192667 -0.0614,0.05829 -0.12497,0.318525 -0.37242,0.682486 -0.66382,0.976383 -0.18664,0.188243 -0.20835,0.218253 -0.089,0.123032 0.0868,-0.06927 0.23999,-0.226604 0.34037,-0.349638 z m 0.58759,-1.180024 c 0,-0.03173 -0.0107,-0.02552 -0.0288,0.01678 -0.0159,0.03691 -0.0288,0.08976 -0.0288,0.117444 0,0.03173 0.0107,0.02552 0.0288,-0.01678 0.0159,-0.03691 0.0288,-0.08976 0.0288,-0.117443 z m 0.0269,-0.176165 c -0.009,-0.02307 -0.0169,-0.0042 -0.0169,0.04194 0,0.04614 0.008,0.06501 0.0169,0.04194 0.009,-0.02307 0.009,-0.06082 0,-0.08389 z m 0.0927,-0.830493 0.0141,-0.553662 -0.0261,0.452996 c -0.0144,0.249148 -0.0353,0.551145 -0.0465,0.671105 -0.0161,0.173003 -0.0137,0.193821 0.012,0.100666 0.0178,-0.06459 0.0387,-0.366591 0.0465,-0.671105 z m -0.0238,-0.796476 c -0.008,-0.05101 -0.0142,-0.01724 -0.0145,0.07504 -2.3e-4,0.09228 0.006,0.134009 0.014,0.09274 0.008,-0.04127 0.008,-0.11677 4.6e-4,-0.167776 z m -0.0393,-0.295595 c -0.0128,-0.08559 -0.0298,-0.149158 -0.0377,-0.141254 -0.008,0.0079 -0.005,0.08519 0.007,0.171759 0.0119,0.08656 0.0288,0.150128 0.0377,0.141254 0.009,-0.0089 0.006,-0.08617 -0.007,-0.171759 z m -0.0686,-0.31725 c -0.0302,-0.137615 -0.0573,-0.110506 -0.0294,0.02936 0.0118,0.05895 0.0284,0.100196 0.037,0.09165 0.009,-0.0085 0.005,-0.063 -0.008,-0.121008 z m -0.22881,-0.61931 c -0.15748,-0.331617 -0.28999,-0.52221 -0.55768,-0.802141 -0.18942,-0.198095 -0.50342,-0.450568 -0.67316,-0.541261 -0.0913,-0.04877 0.009,0.0332 0.23489,0.191417 0.41887,0.293794 0.78812,0.745791 0.99249,1.214898 0.0523,0.120028 0.10147,0.211841 0.10928,0.204027 0.008,-0.0078 -0.0398,-0.127936 -0.10582,-0.26694 z m -1.29795,-1.376546 c 0,-0.02035 -0.25664,-0.152203 -0.29227,-0.150164 -0.0146,8.35e-4 0.0414,0.0379 0.12449,0.08237 0.16917,0.09059 0.16778,0.09002 0.16778,0.06779 z m -0.37901,-0.188769 c -0.078,-0.04538 -0.5278,-0.19846 -0.5748,-0.195616 -0.0376,0.0023 0.54262,0.221602 0.60148,0.227373 0.0185,0.0018 0.006,-0.01248 -0.0267,-0.03176 z m -0.63673,-0.218071 c -0.0112,-0.01115 -0.0401,-0.01234 -0.0643,-0.0026 -0.0268,0.01071 -0.0188,0.01866 0.0203,0.02027 0.0354,0.0015 0.0552,-0.0065 0.044,-0.01762 z m -0.19225,-0.04684 c -0.0461,-0.01478 -0.11409,-0.02687 -0.151,-0.02687 -0.0531,0 -0.0496,0.0056 0.0168,0.02687 0.0461,0.01478 0.11409,0.02687 0.151,0.02687 0.0531,0 0.0497,-0.0056 -0.0168,-0.02687 z m -0.25941,-0.05557 c -0.0227,-0.0092 -0.068,-0.0098 -0.10067,-0.0012 -0.0326,0.0085 -0.0141,0.01603 0.0413,0.01671 0.0554,6.84e-4 0.0821,-0.0063 0.0594,-0.01547 z m -0.23553,-0.03523 c -0.0415,-0.008 -0.10947,-0.008 -0.151,0 -0.0415,0.008 -0.008,0.01454 0.0755,0.01454 0.0831,0 0.11703,-0.0065 0.0755,-0.01454 z m -0.41831,-0.03449 c -0.0871,-0.0069 -0.23805,-0.007 -0.33556,-1.68e-4 -0.0975,0.0068 -0.0263,0.01243 0.15827,0.01252 0.18455,1.01e-4 0.26433,-0.0055 0.17729,-0.01236 z m -1.12709,-0.034 c -0.20865,-0.0059 -0.54084,-0.0059 -0.73822,3.4e-5 -0.19737,0.0059 -0.0267,0.01075 0.37936,0.01072 0.40602,-2.5e-5 0.56751,-0.0049 0.35886,-0.01077 z m 0.48771,0.0048 c -0.0112,-0.01115 -0.0401,-0.01234 -0.0643,-0.0026 -0.0268,0.01071 -0.0188,0.01866 0.0203,0.02027 0.0354,0.0015 0.0552,-0.0065 0.044,-0.01762 z"
         id="path3605"
         transform="scale(0.75)" />
      <path
         style="opacity:1;fill:#ffffff;fill-opacity:0.910615;stroke:#ffffff;stroke-width:0.0234439;stroke-linecap:round;stroke-linejoin:round;stroke-dasharray:none;stroke-opacity:0.792267;paint-order:markers fill stroke"
         d="m 227.25299,92.393806 c 0.0476,-0.02003 0.011,-0.02893 -0.12583,-0.0306 -0.10612,-0.0013 -0.19294,-0.0086 -0.19294,-0.01613 0,-0.07149 0.52041,-0.892149 0.59369,-0.936225 0.0249,-0.01498 0.0365,-0.0414 0.0258,-0.05872 -0.0107,-0.01732 -0.003,-0.03149 0.0161,-0.03149 0.0195,0 0.0355,-0.02103 0.0355,-0.04674 0,-0.02571 0.0236,-0.0558 0.0525,-0.06687 0.0289,-0.01107 0.044,-0.03375 0.0337,-0.05041 -0.0103,-0.01665 0.005,-0.0393 0.0335,-0.05033 0.0288,-0.01103 0.0429,-0.03526 0.0314,-0.05385 -0.0115,-0.01859 -0.007,-0.03379 0.009,-0.03379 0.0165,0 0.90966,-1.319563 1.98472,-2.932362 l 1.95464,-2.932362 -0.37593,-0.565774 c -0.20677,-0.311175 -0.39662,-0.582366 -0.4219,-0.602647 -0.0253,-0.02028 -0.0365,-0.04635 -0.0249,-0.05793 0.0116,-0.01158 -0.004,-0.03055 -0.0339,-0.04214 -0.0302,-0.01159 -0.0465,-0.03471 -0.0362,-0.05136 0.0103,-0.01665 -0.005,-0.0393 -0.0336,-0.05033 -0.0287,-0.01103 -0.0438,-0.03368 -0.0335,-0.05033 0.0103,-0.01665 -0.005,-0.0393 -0.0336,-0.05033 -0.0287,-0.01103 -0.0438,-0.03368 -0.0335,-0.05033 0.0103,-0.01665 -0.005,-0.0393 -0.0336,-0.05033 -0.0287,-0.01103 -0.0438,-0.03368 -0.0335,-0.05033 0.0103,-0.01665 -0.005,-0.0393 -0.0336,-0.05033 -0.0288,-0.01103 -0.0438,-0.03368 -0.0335,-0.05033 0.0103,-0.01665 -0.005,-0.0393 -0.0336,-0.05033 -0.0287,-0.01103 -0.0438,-0.03368 -0.0335,-0.05033 0.0103,-0.01665 -0.005,-0.0393 -0.0336,-0.05033 -0.0288,-0.01103 -0.0438,-0.03368 -0.0335,-0.05033 0.0103,-0.01665 -0.005,-0.0393 -0.0336,-0.05033 -0.0288,-0.01103 -0.0438,-0.03368 -0.0335,-0.05033 0.0103,-0.01665 -0.005,-0.0393 -0.0336,-0.05033 -0.0288,-0.01103 -0.0438,-0.03368 -0.0336,-0.05033 0.0103,-0.01665 -0.005,-0.0393 -0.0336,-0.05033 -0.0288,-0.01103 -0.0438,-0.03368 -0.0336,-0.05033 0.0103,-0.01665 -0.005,-0.0393 -0.0335,-0.05033 -0.0288,-0.01103 -0.0438,-0.03368 -0.0336,-0.05033 0.0103,-0.01665 -0.005,-0.0393 -0.0336,-0.05033 -0.0288,-0.01103 -0.0438,-0.03368 -0.0336,-0.05033 0.0103,-0.01665 -0.005,-0.0393 -0.0335,-0.05033 -0.0288,-0.01103 -0.0438,-0.03368 -0.0336,-0.05033 0.0103,-0.01665 -0.005,-0.0393 -0.0336,-0.05033 -0.0288,-0.01103 -0.0438,-0.03368 -0.0336,-0.05033 0.0103,-0.01665 -0.005,-0.0393 -0.0335,-0.05033 -0.0288,-0.01103 -0.0439,-0.03368 -0.0336,-0.05033 0.0103,-0.01665 -0.005,-0.0393 -0.0336,-0.05033 -0.0288,-0.01103 -0.0438,-0.03368 -0.0336,-0.05033 0.0103,-0.01665 -0.005,-0.0393 -0.0335,-0.05033 -0.0288,-0.01103 -0.0439,-0.03368 -0.0336,-0.05033 0.0103,-0.01665 -0.005,-0.0393 -0.0336,-0.05033 -0.0288,-0.01103 -0.0438,-0.03368 -0.0336,-0.05033 0.0103,-0.01665 -0.005,-0.0393 -0.0336,-0.05033 -0.0287,-0.01103 -0.0438,-0.03368 -0.0335,-0.05033 0.0103,-0.01665 -0.005,-0.0393 -0.0336,-0.05033 -0.0287,-0.01103 -0.0438,-0.03368 -0.0335,-0.05033 0.0103,-0.01665 -0.005,-0.0393 -0.0336,-0.05033 -0.0287,-0.01103 -0.0438,-0.03368 -0.0336,-0.05033 0.0103,-0.01665 -0.005,-0.0393 -0.0336,-0.05033 -0.0287,-0.01103 -0.0438,-0.03368 -0.0335,-0.05033 0.0103,-0.01665 -0.005,-0.0393 -0.0336,-0.05033 -0.0287,-0.01103 -0.0438,-0.03368 -0.0336,-0.05033 0.0103,-0.01665 -0.005,-0.0393 -0.0336,-0.05033 -0.0287,-0.01103 -0.0438,-0.03368 -0.0335,-0.05033 0.0103,-0.01665 -0.005,-0.0393 -0.0336,-0.05033 -0.0288,-0.01103 -0.0439,-0.03368 -0.0336,-0.05033 0.0103,-0.01665 -0.005,-0.0393 -0.0336,-0.05033 -0.0288,-0.01103 -0.0438,-0.03368 -0.0335,-0.05033 0.0103,-0.01665 -0.005,-0.0393 -0.0336,-0.05033 -0.0288,-0.01103 -0.0439,-0.03368 -0.0336,-0.05033 0.0103,-0.01665 -0.005,-0.0393 -0.0336,-0.05033 -0.0288,-0.01103 -0.0438,-0.03368 -0.0336,-0.05033 0.0103,-0.01665 -0.005,-0.0393 -0.0335,-0.05033 -0.0288,-0.01103 -0.0439,-0.03368 -0.0336,-0.05033 0.0103,-0.01665 -0.005,-0.0393 -0.0335,-0.05033 -0.0288,-0.01103 -0.0438,-0.03368 -0.0336,-0.05033 0.0103,-0.01665 -0.005,-0.0393 -0.0335,-0.05033 -0.0288,-0.01103 -0.0439,-0.03368 -0.0336,-0.05033 0.0103,-0.01665 -0.005,-0.0393 -0.0335,-0.05033 -0.0288,-0.01103 -0.0438,-0.03368 -0.0336,-0.05033 0.0103,-0.01665 -0.005,-0.0393 -0.0335,-0.05033 -0.0288,-0.01103 -0.0439,-0.03368 -0.0336,-0.05033 0.0103,-0.01665 -0.002,-0.03837 -0.0281,-0.04826 -0.0258,-0.0099 -0.0469,-0.03682 -0.0469,-0.05984 0,-0.06045 -0.40901,-0.659914 -0.45025,-0.659914 -0.0191,0 -0.027,-0.01241 -0.0176,-0.02757 0.009,-0.01516 -0.11814,-0.230338 -0.28336,-0.478163 l -0.3004,-0.45059 0.2434,-0.02078 c 0.13387,-0.01143 0.55424,-0.02275 0.93417,-0.02517 l 0.69078,-0.0044 1.09608,1.644208 c 0.60284,0.904314 1.11205,1.644207 1.13157,1.644207 0.0195,0 0.0261,0.01521 0.0146,0.03379 -0.0115,0.01859 0.003,0.04282 0.0314,0.05385 0.0287,0.01103 0.0438,0.03368 0.0335,0.05033 -0.0103,0.01665 0.005,0.0393 0.0336,0.05033 0.0287,0.01103 0.0438,0.03368 0.0335,0.05033 -0.0103,0.01665 0.005,0.0393 0.0336,0.05033 0.0287,0.01103 0.0438,0.03368 0.0335,0.05033 -0.0103,0.01665 0.005,0.0393 0.0336,0.05033 0.0287,0.01103 0.0438,0.03368 0.0335,0.05033 -0.0103,0.01665 0.005,0.0393 0.0336,0.05033 0.0288,0.01103 0.0438,0.03368 0.0335,0.05033 -0.0103,0.01665 0.005,0.0393 0.0336,0.05033 0.0288,0.01103 0.0438,0.03368 0.0335,0.05033 -0.0103,0.01665 0.005,0.0393 0.0336,0.05033 0.0288,0.01103 0.0438,0.03368 0.0336,0.05033 -0.0103,0.01665 0.005,0.0393 0.0336,0.05033 0.0288,0.01103 0.0438,0.03368 0.0336,0.05033 -0.0103,0.01665 0.005,0.0393 0.0335,0.05033 0.0288,0.01103 0.0439,0.03368 0.0336,0.05033 -0.0103,0.01665 0.005,0.0393 0.0336,0.05033 0.0288,0.01103 0.0438,0.03368 0.0336,0.05033 -0.0103,0.01665 0.005,0.0393 0.0335,0.05033 0.0288,0.01103 0.0439,0.03368 0.0336,0.05033 -0.0103,0.01665 0.005,0.0393 0.0336,0.05033 0.0288,0.01103 0.0438,0.03368 0.0336,0.05033 -0.0103,0.01665 0.005,0.03934 0.0337,0.05041 0.0289,0.01107 0.0525,0.04116 0.0525,0.06687 0,0.02571 0.0151,0.04674 0.0335,0.04674 0.0185,0 0.0336,0.02265 0.0336,0.05033 0,0.02768 0.0151,0.05033 0.0335,0.05033 0.0185,0 0.0336,0.02265 0.0336,0.05033 0,0.02768 0.0141,0.05033 0.0313,0.05033 0.0172,0 0.0409,0.0302 0.0526,0.06711 0.0117,0.03691 0.0363,0.06711 0.0546,0.06711 0.0183,0 0.0239,-0.0151 0.0125,-0.03355 -0.0114,-0.01846 -0.005,-0.03356 0.014,-0.03356 0.0402,0 0.52074,-0.704141 0.48165,-0.70568 -0.0143,-5.61e-4 8.2e-4,-0.01659 0.0335,-0.03562 0.0327,-0.01903 0.0516,-0.04719 0.0421,-0.06257 -0.01,-0.01539 0.006,-0.037 0.035,-0.04803 0.0287,-0.01103 0.0438,-0.03368 0.0335,-0.05033 -0.0103,-0.01665 7e-5,-0.03761 0.023,-0.04656 0.023,-0.009 0.6382,-0.90829 1.36719,-1.998515 l 1.32543,-1.982228 0.94992,-0.0015 c 0.75124,-0.0012 0.94468,0.0072 0.92487,0.0404 -0.0138,0.02307 -0.39982,0.604415 -0.85786,1.291878 -0.45805,0.687463 -0.82139,1.250392 -0.80743,1.250954 0.014,5.61e-4 -0.001,0.01659 -0.034,0.03562 -0.0327,0.01903 -0.0516,0.04719 -0.0421,0.06257 0.01,0.01539 -0.006,0.037 -0.035,0.04803 -0.0288,0.01103 -0.0438,0.03368 -0.0336,0.05033 0.0103,0.01665 -0.005,0.0393 -0.0335,0.05033 -0.0288,0.01103 -0.0439,0.03368 -0.0336,0.05033 0.0103,0.01665 -0.005,0.0393 -0.0335,0.05033 -0.0288,0.01103 -0.0438,0.03368 -0.0336,0.05033 0.0103,0.01665 -0.005,0.0393 -0.0336,0.05033 -0.0287,0.01103 -0.0438,0.03368 -0.0336,0.05033 0.0103,0.01665 -0.005,0.0393 -0.0336,0.05033 -0.0287,0.01103 -0.0438,0.03368 -0.0335,0.05033 0.0103,0.01665 -0.005,0.0393 -0.0336,0.05033 -0.0287,0.01103 -0.0438,0.03368 -0.0336,0.05033 0.0103,0.01665 -0.005,0.0393 -0.0336,0.05033 -0.0287,0.01103 -0.0438,0.03368 -0.0335,0.05033 0.0103,0.01665 -0.005,0.0393 -0.0336,0.05033 -0.0287,0.01103 -0.0438,0.03368 -0.0336,0.05033 0.0103,0.01665 -0.005,0.0393 -0.0336,0.05033 -0.0287,0.01103 -0.0438,0.03368 -0.0335,0.05033 0.0103,0.01665 -0.005,0.0393 -0.0336,0.05033 -0.0287,0.01103 -0.0438,0.03368 -0.0335,0.05033 0.0103,0.01665 -0.005,0.0393 -0.0336,0.05033 -0.0288,0.01103 -0.0438,0.03368 -0.0335,0.05033 0.0103,0.01665 -0.005,0.0393 -0.0336,0.05033 -0.0287,0.01103 -0.0438,0.03368 -0.0335,0.05033 0.0103,0.01665 -0.005,0.0393 -0.0336,0.05033 -0.0288,0.01103 -0.0438,0.03368 -0.0335,0.05033 0.0103,0.01665 -0.005,0.0393 -0.0336,0.05033 -0.0287,0.01103 -0.0438,0.03368 -0.0336,0.05033 0.0103,0.01665 -0.005,0.0393 -0.0335,0.05033 -0.0288,0.01103 -0.0438,0.03368 -0.0336,0.05033 0.0103,0.01665 -0.005,0.0393 -0.0336,0.05033 -0.0288,0.01103 -0.0438,0.03368 -0.0336,0.05033 0.0103,0.01665 -0.005,0.0393 -0.0335,0.05033 -0.0288,0.01103 -0.0438,0.03368 -0.0336,0.05033 0.0103,0.01665 -0.005,0.0393 -0.0336,0.05033 -0.0288,0.01103 -0.0438,0.03368 -0.0336,0.05033 0.0103,0.01665 -0.005,0.0393 -0.0335,0.05033 -0.0288,0.01103 -0.0438,0.03368 -0.0336,0.05033 0.0103,0.01665 -0.005,0.0393 -0.0336,0.05033 -0.0288,0.01103 -0.0438,0.03368 -0.0336,0.05033 0.0103,0.01665 -0.005,0.0393 -0.0335,0.05033 -0.0288,0.01103 -0.0438,0.03368 -0.0336,0.05033 0.0103,0.01665 -0.005,0.0393 -0.0336,0.05033 -0.0288,0.01103 -0.0438,0.03368 -0.0336,0.05033 0.0103,0.01665 -0.005,0.0393 -0.0335,0.05033 -0.0288,0.01103 -0.0438,0.03368 -0.0336,0.05033 0.0103,0.01665 -0.005,0.0393 -0.0336,0.05033 -0.0287,0.01103 -0.0438,0.03368 -0.0335,0.05033 0.0103,0.01665 -0.005,0.0393 -0.0336,0.05033 -0.0287,0.01103 -0.0438,0.03368 -0.0335,0.05033 0.0103,0.01665 -0.006,0.03976 -0.0362,0.05136 -0.0302,0.0116 -0.0455,0.03056 -0.0339,0.04214 0.0116,0.01158 6.2e-4,0.03765 -0.0244,0.05793 -0.025,0.02028 -0.20676,0.278242 -0.40394,0.573249 -0.31415,0.470016 -0.35422,0.54578 -0.32387,0.612384 0.019,0.0418 0.051,0.07601 0.0709,0.07601 0.0199,0 0.0268,0.01521 0.0154,0.03379 -0.0115,0.01859 0.003,0.04282 0.0314,0.05385 0.0288,0.01103 0.0438,0.03368 0.0336,0.05033 -0.0103,0.01665 0.005,0.0393 0.0336,0.05033 0.0288,0.01103 0.0438,0.03368 0.0335,0.05033 -0.0103,0.01665 0.005,0.0393 0.0336,0.05033 0.0288,0.01103 0.0439,0.03368 0.0336,0.05033 -0.0103,0.01665 0.005,0.0393 0.0336,0.05033 0.0288,0.01103 0.0438,0.03368 0.0336,0.05033 -0.0103,0.01665 0.005,0.0393 0.0335,0.05033 0.0288,0.01103 0.0439,0.03368 0.0336,0.05033 -0.0103,0.01665 0.005,0.0393 0.0336,0.05033 0.0288,0.01103 0.0438,0.03368 0.0336,0.05033 -0.0103,0.01665 0.002,0.03837 0.0282,0.04826 0.0258,0.0099 0.0469,0.03632 0.0469,0.05872 0,0.05616 0.51761,0.828816 0.55523,0.828816 0.0167,0 0.021,0.01521 0.009,0.03379 -0.0115,0.01859 0.003,0.04282 0.0314,0.05385 0.0288,0.01103 0.0438,0.03368 0.0336,0.05033 -0.0103,0.01665 0.005,0.0393 0.0336,0.05033 0.0288,0.01103 0.0438,0.03368 0.0336,0.05033 -0.0103,0.01665 0.005,0.0393 0.0335,0.05033 0.0288,0.01103 0.0438,0.03368 0.0336,0.05033 -0.0103,0.01665 0.005,0.0393 0.0336,0.05033 0.0288,0.01103 0.0438,0.03368 0.0336,0.05033 -0.0103,0.01665 0.005,0.0393 0.0335,0.05033 0.0288,0.01103 0.0438,0.03368 0.0336,0.05033 -0.0103,0.01665 0.005,0.0393 0.0336,0.05033 0.0288,0.01103 0.0438,0.03368 0.0336,0.05033 -0.0103,0.01665 0.002,0.03837 0.0282,0.04826 0.0258,0.0099 0.0469,0.03632 0.0469,0.05872 0,0.05616 0.51761,0.828816 0.55523,0.828816 0.0167,0 0.021,0.01521 0.009,0.03379 -0.0115,0.01859 0.003,0.04282 0.0314,0.05385 0.0288,0.01103 0.0438,0.03368 0.0336,0.05033 -0.0103,0.01665 0.005,0.0393 0.0336,0.05033 0.0287,0.01103 0.0438,0.03368 0.0336,0.05033 -0.0103,0.01665 0.005,0.0393 0.0336,0.05033 0.0287,0.01103 0.0438,0.03368 0.0335,0.05033 -0.0103,0.01665 0.005,0.0393 0.0336,0.05033 0.0287,0.01103 0.0438,0.03368 0.0335,0.05033 -0.0103,0.01665 0.005,0.0393 0.0336,0.05033 0.0287,0.01103 0.0438,0.03368 0.0335,0.05033 -0.0103,0.01665 0.005,0.0393 0.0336,0.05033 0.0287,0.01103 0.0438,0.03368 0.0335,0.05033 -0.0103,0.01665 0.002,0.03837 0.0282,0.04826 0.0258,0.0099 0.0469,0.03633 0.0469,0.05875 0,0.05621 0.45038,0.728115 0.48805,0.728115 0.0167,0 0.021,0.01521 0.01,0.03379 -0.0115,0.01859 0.003,0.04282 0.0314,0.05385 0.0287,0.01103 0.0438,0.03368 0.0336,0.05033 -0.0103,0.01665 0.005,0.0393 0.0336,0.05033 0.0287,0.01103 0.0438,0.03368 0.0335,0.05033 -0.0103,0.01665 0.005,0.0393 0.0336,0.05033 0.0288,0.01103 0.0439,0.03368 0.0336,0.05033 -0.0103,0.01665 0.005,0.0393 0.0336,0.05033 0.0288,0.01103 0.0438,0.03368 0.0335,0.05033 -0.0103,0.01665 0.005,0.0393 0.0336,0.05033 0.0288,0.01103 0.0439,0.03368 0.0336,0.05033 -0.0103,0.01665 0.002,0.03837 0.0282,0.04826 0.0258,0.0099 0.0472,0.03621 0.0475,0.05849 3.3e-4,0.02228 0.21896,0.372697 0.48582,0.778716 0.26687,0.406018 0.4965,0.75709 0.51029,0.780159 0.0198,0.03316 -0.1738,0.04183 -0.92485,0.04142 l -0.94991,-5.26e-4 -0.19726,-0.301471 c -0.1085,-0.165809 -0.21131,-0.301471 -0.22848,-0.301471 -0.0172,0 -0.0218,-0.01521 -0.0103,-0.03379 0.0115,-0.01859 -0.003,-0.04282 -0.0314,-0.05385 -0.0287,-0.01103 -0.0438,-0.03368 -0.0335,-0.05033 0.0103,-0.01665 -0.005,-0.0393 -0.0336,-0.05033 -0.0287,-0.01103 -0.044,-0.03345 -0.0339,-0.04982 0.0101,-0.01637 -0.0164,-0.06569 -0.0589,-0.109606 -0.0425,-0.04392 -0.0813,-0.0975 -0.0861,-0.119072 -0.0129,-0.05711 -0.81251,-1.254563 -0.8669,-1.298169 -0.0253,-0.02028 -0.0365,-0.04635 -0.0249,-0.05793 0.0116,-0.01158 -0.004,-0.03055 -0.0339,-0.04214 -0.0302,-0.0116 -0.0465,-0.03471 -0.0362,-0.05136 0.0103,-0.01665 -0.005,-0.0393 -0.0335,-0.05033 -0.0288,-0.01103 -0.0439,-0.03368 -0.0336,-0.05033 0.0103,-0.01665 -0.005,-0.0393 -0.0336,-0.05033 -0.0288,-0.01103 -0.0438,-0.03368 -0.0336,-0.05033 0.0103,-0.01665 -0.005,-0.0393 -0.0335,-0.05033 -0.0288,-0.01103 -0.0439,-0.03368 -0.0336,-0.05033 0.0103,-0.01665 -0.005,-0.0393 -0.0336,-0.05033 -0.0288,-0.01103 -0.0438,-0.03368 -0.0336,-0.05033 0.0103,-0.01665 -0.005,-0.0393 -0.0335,-0.05033 -0.0288,-0.01103 -0.0439,-0.03368 -0.0336,-0.05033 0.0103,-0.01665 -0.005,-0.0393 -0.0336,-0.05033 -0.0288,-0.01103 -0.0438,-0.03368 -0.0336,-0.05033 0.0103,-0.01665 -0.005,-0.0393 -0.0335,-0.05033 -0.0288,-0.01103 -0.0439,-0.03368 -0.0336,-0.05033 0.0103,-0.01665 -0.002,-0.03837 -0.0281,-0.04826 -0.0258,-0.0099 -0.0472,-0.03621 -0.0477,-0.05848 -10e-4,-0.05776 -0.5163,-0.829049 -0.55369,-0.829049 -0.0171,0 -0.0217,-0.01521 -0.0102,-0.03379 0.0115,-0.01859 -0.003,-0.04282 -0.0314,-0.05385 -0.0288,-0.01103 -0.0438,-0.03368 -0.0336,-0.05033 0.0103,-0.01665 -0.005,-0.0393 -0.0335,-0.05033 -0.0288,-0.01103 -0.0438,-0.03368 -0.0336,-0.05033 0.0103,-0.01665 -0.005,-0.0393 -0.0336,-0.05033 -0.0287,-0.01103 -0.0438,-0.03368 -0.0335,-0.05033 0.0103,-0.01665 -0.005,-0.0393 -0.0336,-0.05033 -0.0287,-0.01103 -0.0438,-0.03368 -0.0335,-0.05033 0.0103,-0.01665 -0.005,-0.0393 -0.0336,-0.05033 -0.0287,-0.01103 -0.0438,-0.03368 -0.0335,-0.05033 0.0103,-0.01665 -0.005,-0.0393 -0.0336,-0.05033 -0.0287,-0.01103 -0.0438,-0.03368 -0.0335,-0.05033 0.0103,-0.01665 -0.005,-0.0393 -0.0336,-0.05033 -0.0287,-0.01103 -0.0438,-0.03368 -0.0335,-0.05033 0.0103,-0.01665 -0.005,-0.0393 -0.0336,-0.05033 -0.0287,-0.01103 -0.0438,-0.03368 -0.0335,-0.05033 0.0103,-0.01665 -0.005,-0.0393 -0.0336,-0.05033 -0.0288,-0.01103 -0.0438,-0.03368 -0.0335,-0.05033 0.0103,-0.01665 -0.005,-0.0393 -0.0336,-0.05033 -0.0288,-0.01103 -0.0438,-0.03368 -0.0336,-0.05033 0.0103,-0.01665 -0.005,-0.0393 -0.0336,-0.05033 -0.0288,-0.01103 -0.0438,-0.03368 -0.0335,-0.05033 0.0103,-0.01665 -0.005,-0.0393 -0.0336,-0.05033 -0.0288,-0.01103 -0.0439,-0.03357 -0.0337,-0.0501 0.0102,-0.01652 0.004,-0.03004 -0.0139,-0.03004 -0.0178,0 -0.0754,-0.06792 -0.12781,-0.150939 -0.0525,-0.08302 -0.10291,-0.150729 -0.11214,-0.150472 -0.009,2.68e-4 -0.10185,0.132353 -0.20583,0.293548 -0.80172,1.242918 -1.21675,1.871826 -1.24154,1.881364 -0.016,0.0062 -0.0291,0.03258 -0.0291,0.05872 0,0.02614 -0.0151,0.04754 -0.0336,0.04754 -0.0185,0 -0.0336,0.02265 -0.0336,0.05033 0,0.02768 -0.0151,0.05033 -0.0336,0.05033 -0.0185,0 -0.0335,0.02265 -0.0335,0.05033 0,0.02768 -0.0151,0.05033 -0.0336,0.05033 -0.0185,0 -0.0336,0.02265 -0.0336,0.05033 0,0.02768 -0.0151,0.05033 -0.0336,0.05033 -0.0185,0 -0.0335,0.02265 -0.0335,0.05033 0,0.02768 -0.0151,0.05033 -0.0336,0.05033 -0.0185,0 -0.0336,0.02265 -0.0336,0.05033 0,0.02768 -0.0151,0.05033 -0.0336,0.05033 -0.0185,0 -0.0335,0.02265 -0.0335,0.05033 0,0.02768 -0.0151,0.05033 -0.0336,0.05033 -0.0184,0 -0.0335,0.02265 -0.0335,0.05033 0,0.02768 -0.0151,0.05033 -0.0336,0.05033 -0.0185,0 -0.0335,0.02265 -0.0335,0.05033 0,0.02768 -0.0151,0.05033 -0.0336,0.05033 -0.0185,0 -0.0336,0.02265 -0.0336,0.05033 0,0.02768 -0.0151,0.05033 -0.0335,0.05033 -0.0185,0 -0.0336,0.02265 -0.0336,0.05033 0,0.02768 -0.0151,0.05033 -0.0336,0.05033 -0.0185,0 -0.0336,0.02265 -0.0336,0.05033 0,0.02768 -0.0151,0.05033 -0.0335,0.05033 -0.0185,0 -0.0336,0.02265 -0.0336,0.05033 0,0.02768 -0.0151,0.05033 -0.0336,0.05033 -0.0185,0 -0.0336,0.02265 -0.0336,0.05033 0,0.02768 -0.0151,0.05033 -0.0335,0.05033 -0.0185,0 -0.0336,0.02265 -0.0336,0.05033 0,0.02768 -0.0151,0.05033 -0.0336,0.05033 -0.0185,0 -0.0336,0.02265 -0.0336,0.05033 0,0.02768 -0.0151,0.05033 -0.0335,0.05033 -0.0185,0 -0.0336,0.02265 -0.0336,0.05033 0,0.02768 -0.0151,0.05033 -0.0336,0.05033 -0.0185,0 -0.0336,0.02265 -0.0336,0.05033 0,0.02768 -0.0151,0.05033 -0.0335,0.05033 -0.0185,0 -0.0336,0.02265 -0.0336,0.05033 0,0.02768 -0.0151,0.05033 -0.0336,0.05033 -0.0185,0 -0.0335,0.02265 -0.0335,0.05033 0,0.02768 -0.0151,0.05033 -0.0336,0.05033 -0.0185,0 -0.0335,0.02265 -0.0335,0.05033 0,0.02768 -0.0151,0.05033 -0.0336,0.05033 -0.0185,0 -0.0335,0.02265 -0.0335,0.05033 0,0.02768 -0.0151,0.05033 -0.0336,0.05033 -0.0185,0 -0.0335,0.02265 -0.0335,0.05033 0,0.02768 -0.0151,0.05033 -0.0336,0.05033 -0.0185,0 -0.0335,0.02265 -0.0335,0.05033 0,0.02768 -0.0151,0.05033 -0.0336,0.05033 -0.0185,0 -0.0335,0.02265 -0.0335,0.05033 0,0.02768 -0.0151,0.05033 -0.0336,0.05033 -0.0185,0 -0.0335,0.02265 -0.0335,0.05033 0,0.02768 -0.0151,0.05033 -0.0336,0.05033 -0.0185,0 -0.0336,0.02265 -0.0336,0.05033 0,0.02768 -0.0151,0.05033 -0.0336,0.05033 -0.0185,0 -0.0335,0.02265 -0.0335,0.05033 0,0.02768 -0.0151,0.05033 -0.0336,0.05033 -0.0185,0 -0.0336,0.02265 -0.0336,0.05033 0,0.02768 -0.0151,0.05033 -0.0336,0.05033 -0.0185,0 -0.0336,0.02265 -0.0336,0.05033 0,0.02768 -0.0151,0.05033 -0.0335,0.05033 -0.0185,0 -0.0336,0.02265 -0.0336,0.05033 0,0.02768 -0.0151,0.05033 -0.0336,0.05033 -0.0185,0 -0.0336,0.02265 -0.0336,0.05033 0,0.02768 -0.0151,0.05033 -0.0335,0.05033 -0.0185,0 -0.0336,0.02265 -0.0336,0.05033 0,0.02768 -0.0151,0.05033 -0.0336,0.05033 -0.0185,0 -0.0336,0.02265 -0.0336,0.05033 0,0.02768 -0.0151,0.05033 -0.0335,0.05033 -0.0185,0 -0.0336,0.01618 -0.0336,0.03595 0,0.106683 -0.0902,0.12089 -0.88967,0.140111 -0.44583,0.01072 -0.77493,0.0068 -0.73776,-0.0089 z"
         id="path3607"
         transform="scale(0.75)" />
      <path
         style="opacity:1;fill:#ffffff;fill-opacity:0.910615;stroke:#ffffff;stroke-width:0.0234439;stroke-linecap:round;stroke-linejoin:round;stroke-dasharray:none;stroke-opacity:0.792267;paint-order:markers fill stroke"
         d="M 208.54593,87.260451 V 73.502795 h 17.61652 17.61651 v 13.757656 13.757659 h -17.61651 -17.61652 z m 8.41397,1.585486 c -0.005,-0.65978 -0.009,-0.11996 -0.009,1.199601 0,1.31956 0.004,1.85938 0.009,1.1996 0.005,-0.65978 0.005,-1.739421 0,-2.399201 z m 10.27631,3.548469 c 0,-0.01909 -0.0832,-0.03128 -0.19294,-0.02828 l -0.19294,0.0053 0.16777,0.02301 c 0.0923,0.01266 0.17911,0.02538 0.19295,0.02828 0.0138,0.0029 0.0252,-0.0098 0.0252,-0.02828 z m 1.5899,-0.01852 c 0.0138,-0.03596 0.007,-0.04375 -0.0216,-0.02517 -0.0229,0.0148 -0.26806,0.03523 -0.54489,0.0454 l -0.50333,0.0185 0.52491,0.0067 c 0.44753,0.0057 0.52785,-0.001 0.54488,-0.04541 z m 9.52369,0.02294 0.0907,-0.0212 -0.35933,-0.542686 c -0.19764,-0.298477 -0.37299,-0.555175 -0.38967,-0.570439 -0.044,-0.04022 -0.009,0.01693 0.3397,0.550375 0.1715,0.262605 0.31182,0.49333 0.31182,0.512724 0,0.02404 -0.3035,0.03227 -0.9535,0.02587 -0.75984,-0.0075 -0.94643,-8.76e-4 -0.91866,0.03255 0.0264,0.03179 0.24713,0.04098 0.91156,0.03797 0.48219,-0.0022 0.91752,-0.01351 0.9674,-0.02517 z m -2.48988,-0.977522 c -0.0394,-0.05537 -0.0792,-0.100666 -0.0885,-0.100666 -0.009,0 0.0155,0.0453 0.0549,0.100666 0.0394,0.05537 0.0792,0.100666 0.0885,0.100666 0.009,0 -0.0155,-0.0453 -0.0549,-0.100666 z m -0.12224,-0.176165 c -0.13592,-0.223336 -0.5186,-0.796937 -0.53168,-0.796937 -0.009,0 0.0933,0.169873 0.22791,0.377496 0.13458,0.207624 0.25618,0.396372 0.27022,0.419441 0.014,0.02307 0.0331,0.04194 0.0423,0.04194 0.009,0 0.005,-0.01887 -0.009,-0.04194 z m 1.76744,-0.29174 c -0.0192,-0.03588 -0.0515,-0.07549 -0.0718,-0.08802 -0.0203,-0.01253 -0.0109,0.01683 0.0208,0.06524 0.0672,0.102506 0.10194,0.118053 0.051,0.02278 z m -7.48504,-3.277355 1.68625,-2.520492 -0.30622,-0.457537 c -0.16843,-0.251645 -0.313,-0.457536 -0.32128,-0.457536 -0.008,0 0.11422,0.197536 0.27223,0.43897 0.16719,0.255477 0.28106,0.46275 0.2724,0.495859 -0.008,0.03129 -0.75421,1.166317 -1.65783,2.522282 -0.90363,1.355966 -1.65558,2.488042 -1.67101,2.515725 -0.1108,0.198895 0.24194,-0.319809 1.72546,-2.537271 z m 6.69241,2.084275 c -0.0302,-0.04614 -0.0617,-0.08389 -0.0699,-0.08389 -0.0164,0 0.0152,0.06079 0.0655,0.125832 0.0578,0.07471 0.0609,0.04439 0.004,-0.04194 z m -1.22168,-1.862317 c -0.0198,-0.03691 -0.0435,-0.06711 -0.0527,-0.06711 -0.009,0 -6.1e-4,0.0302 0.0191,0.06711 0.0198,0.03691 0.0435,0.06711 0.0527,0.06711 0.009,0 6.1e-4,-0.0302 -0.0191,-0.06711 z m -12.58322,-0.78444 c 0,-0.007 -0.0264,-0.03339 -0.0587,-0.05872 -0.0532,-0.04174 -0.0544,-0.04055 -0.0127,0.01267 0.0438,0.05589 0.0714,0.07367 0.0714,0.04605 z m -0.13423,-0.165607 c 0,-0.0058 -0.0491,-0.05485 -0.10905,-0.109055 l -0.10905,-0.09855 0.0985,0.109054 c 0.0919,0.101654 0.11955,0.124478 0.11955,0.09855 z m -0.40266,-0.403092 c 0,-0.006 -0.0415,-0.04753 -0.0923,-0.09228 l -0.0923,-0.08135 0.0814,0.09228 c 0.076,0.08625 0.1032,0.107665 0.1032,0.08135 z m 11.48748,-1.11462 c -0.0109,-0.02848 -0.0271,-0.04458 -0.0359,-0.03579 -0.009,0.0088 -0.006,0.0321 0.006,0.05178 0.0331,0.05354 0.0524,0.04313 0.0297,-0.01599 z M 223.19281,85.01225 c 0.0334,-0.03691 0.0532,-0.06711 0.0439,-0.06711 -0.009,0 -0.0441,0.0302 -0.0775,0.06711 -0.0334,0.03691 -0.0532,0.06711 -0.044,0.06711 0.009,0 0.0441,-0.0302 0.0775,-0.06711 z m 0.38588,-0.616001 c 0,-0.04263 -0.0155,-0.0236 -0.0644,0.07912 -0.0377,0.0791 -0.037,0.08017 0.0122,0.01875 0.0287,-0.03583 0.0522,-0.07987 0.0522,-0.09787 z m 0.2917,-1.186956 c -0.009,-0.03265 -0.016,-0.01406 -0.0167,0.04131 -6.8e-4,0.05537 0.006,0.08208 0.0155,0.05936 0.009,-0.02272 0.01,-0.06802 0.001,-0.100666 z m 0.0332,-0.485092 c -0.0107,-0.02677 -0.0187,-0.01882 -0.0203,0.02027 -10e-4,0.03537 0.006,0.05519 0.0176,0.04404 0.0112,-0.01115 0.0123,-0.04009 0.003,-0.06431 z m 9.97655,-0.429927 c 0.11168,-0.166099 0.19551,-0.301998 0.18628,-0.301998 -0.009,0 -0.10816,0.135899 -0.21984,0.301998 -0.11168,0.166098 -0.19551,0.301997 -0.18628,0.301997 0.009,0 0.10815,-0.135899 0.21984,-0.301997 z m 1.20798,-1.795207 c 0.38786,-0.581344 0.69764,-1.05699 0.68841,-1.05699 -0.009,0 -0.33411,0.475646 -0.72196,1.05699 -0.38785,0.581345 -0.69764,1.056991 -0.68841,1.056991 0.009,0 0.33411,-0.475646 0.72196,-1.056991 z m -4.89906,-0.536884 -0.77226,-1.157656 -0.84702,3.69e-4 c -0.46587,2.01e-4 -0.90261,0.0096 -0.97054,0.02079 l -0.12351,0.02042 0.11987,0.18054 c 0.0659,0.0993 0.12702,0.180541 0.13576,0.180541 0.009,0 -0.011,-0.04152 -0.0438,-0.09228 -0.16841,-0.260359 -0.18678,-0.230571 0.15725,-0.25499 0.16923,-0.01201 0.58982,-0.02184 0.93464,-0.02184 h 0.62695 l 0.76049,1.140879 c 0.41828,0.627483 0.76813,1.140879 0.77746,1.140879 0.009,0 -0.33054,-0.520946 -0.75528,-1.157657 z m -1.66288,0.42783 c -0.20287,-0.312297 -0.29474,-0.444607 -0.30872,-0.444607 -0.009,0 0.0111,0.04152 0.0441,0.09228 0.20287,0.312296 0.29474,0.444607 0.30872,0.444607 0.009,0 -0.0111,-0.04152 -0.0441,-0.09228 z m 9.17295,-0.885441 0.43832,-0.658942 -0.10276,-0.02055 c -0.0565,-0.0113 -0.49162,-0.02055 -0.96689,-0.02055 -0.65035,0 -0.87275,0.01038 -0.89898,0.04194 -0.0278,0.03343 0.15882,0.04004 0.91866,0.03255 0.6496,-0.0064 0.95351,0.0018 0.95351,0.02584 0,0.01938 -0.17842,0.302956 -0.39648,0.630167 -0.41702,0.625748 -0.47547,0.718326 -0.41797,0.662041 0.0188,-0.01846 0.23152,-0.330079 0.47259,-0.692498 z m -9.77904,-0.02894 c -0.0488,-0.07382 -0.0952,-0.134221 -0.10312,-0.134221 -0.017,0 0.0112,0.0507 0.0981,0.176165 0.1,0.14437 0.10429,0.108089 0.005,-0.04194 z"
         id="path3609"
         transform="scale(0.75)" />
      <path
         style="opacity:1;fill:#ffffff;fill-opacity:0.910615;stroke:#ffffff;stroke-width:0.0234439;stroke-linecap:round;stroke-linejoin:round;stroke-dasharray:none;stroke-opacity:0.792267;paint-order:markers fill stroke"
         d="M 208.54593,87.260451 V 73.502795 h 17.61652 17.61651 v 13.757656 13.757659 h -17.61651 -17.61652 z m 20.24547,5.142344 c 0.009,-0.01384 -0.0623,-0.02081 -0.15741,-0.01548 -0.28603,0.01602 -0.32089,0.03123 -0.0827,0.03607 0.12348,0.0025 0.23154,-0.0068 0.24012,-0.0206 z m 9.29155,0.0032 c 0.17994,-0.01192 0.32717,-0.0316 0.32717,-0.04375 0,-0.01214 -0.0219,-0.05139 -0.0487,-0.08722 -0.047,-0.06291 -0.048,-0.06255 -0.0296,0.01036 l 0.019,0.0755 h -0.92866 c -0.61057,0 -0.92156,0.01149 -0.90793,0.03356 0.0235,0.03809 1.0534,0.04567 1.56871,0.01154 z m -10.93837,-0.03355 c -0.0227,-0.0092 -0.068,-0.0098 -0.10067,-0.0012 -0.0327,0.0085 -0.0141,0.01603 0.0413,0.01671 0.0554,6.85e-4 0.0821,-0.0063 0.0594,-0.01547 z m 3.97664,-6.356503 0.57131,-0.858672 -0.0671,-0.106041 c -0.0369,-0.05832 -0.0749,-0.106042 -0.0845,-0.106042 -0.01,0 0.008,0.03929 0.0399,0.08731 0.0315,0.04802 0.0505,0.112869 0.0424,0.144104 -0.008,0.03123 -0.25587,0.418516 -0.55045,0.860623 -0.55516,0.833189 -0.6163,0.928766 -0.55712,0.870942 0.0189,-0.01846 0.29142,-0.419958 0.60565,-0.892228 z m 6.92088,-7.028578 c 0.0405,-0.06556 0.0632,-0.129739 0.0503,-0.14261 -0.0417,-0.04172 -1.8655,-0.05146 -1.90677,-0.01019 -0.0271,0.02712 0.21774,0.03712 0.90914,0.03712 0.62991,0 0.94626,0.01161 0.94626,0.03474 0,0.0191 -0.0244,0.07195 -0.0542,0.117443 -0.0298,0.04549 -0.0461,0.08271 -0.0363,0.08271 0.01,0 0.0511,-0.05364 0.0916,-0.119208 z m -10.269,-0.135981 c 0,-0.0073 -0.0604,-0.01325 -0.13422,-0.01325 -0.0738,0 -0.13422,0.01172 -0.13422,0.02605 0,0.01433 0.0604,0.02029 0.13422,0.01325 0.0738,-0.007 0.13422,-0.01876 0.13422,-0.02605 z m 1.67776,0.0035 c -0.0354,-0.04261 -0.16609,-0.04914 -0.85138,-0.04258 l -0.8096,0.0078 0.80427,0.0097 c 0.46746,0.0056 0.81806,0.02344 0.8372,0.04258 0.0515,0.0515 0.066,0.03859 0.0195,-0.0174 z"
         id="path3611"
         transform="scale(0.75)" />
      <path
         style="opacity:1;fill:#ffffff;fill-opacity:0.910615;stroke:#ffffff;stroke-width:0.0234439;stroke-linecap:round;stroke-linejoin:round;stroke-dasharray:none;stroke-opacity:0.792267;paint-order:markers fill stroke"
         d="M 208.54593,87.260451 V 73.502795 h 17.61652 17.61651 v 13.757656 13.757659 h -17.61651 -17.61652 z m 29.37763,5.135403 c 0.28649,-0.01829 0.17759,-0.02378 -0.48655,-0.02452 -0.47061,-5.27e-4 -0.79526,0.0099 -0.72144,0.02308 0.17245,0.03088 0.73654,0.03155 1.20799,0.0014 z m 0.46834,-0.03269 c 0.0106,-0.01718 0.006,-0.03917 -0.009,-0.04886 -0.0157,-0.0097 -0.0285,0.0044 -0.0285,0.03124 0,0.05658 0.0106,0.06152 0.0377,0.01762 z m -6.73351,-7.221287 c -0.008,-0.02513 -0.0236,-0.0099 -0.0355,0.03545 -0.0146,0.05581 -0.0102,0.06892 0.0147,0.04402 0.0195,-0.0195 0.0289,-0.05526 0.0208,-0.07947 z m 6.16451,-6.308637 c -0.4328,-0.03097 -1.33065,-0.03315 -1.46385,-0.0036 -0.0654,0.01453 0.26963,0.03226 0.79274,0.04194 0.92361,0.0171 1.21423,4.8e-4 0.67111,-0.03839 z m -10.175,0.01638 c -0.0227,-0.0092 -0.068,-0.0098 -0.10066,-0.0012 -0.0326,0.0085 -0.0141,0.01603 0.0413,0.01671 0.0554,6.85e-4 0.0821,-0.0063 0.0594,-0.01547 z"
         id="path3613"
         transform="scale(0.75)" />
      <path
         style="opacity:1;fill:#ffffff;fill-opacity:0.910615;stroke:#ffffff;stroke-width:0.0234439;stroke-linecap:round;stroke-linejoin:round;stroke-dasharray:none;stroke-opacity:0.792267;paint-order:markers fill stroke"
         d="M 208.54593,87.260451 V 73.502795 h 17.61652 17.61651 v 13.757656 13.757659 h -17.61651 -17.61652 z m 29.42517,-8.40137 c -0.008,-0.0069 -0.30843,-0.02035 -0.66831,-0.02988 -0.35988,-0.0095 -0.57883,-0.0063 -0.48655,0.0073 0.17271,0.02533 1.17985,0.04504 1.15486,0.0226 z"
         id="path3615"
         transform="scale(0.75)" />
      <path
         style="opacity:1;fill:#ffffff;fill-opacity:0.910615;stroke:#ffffff;stroke-width:0.0234439;stroke-linecap:round;stroke-linejoin:round;stroke-dasharray:none;stroke-opacity:0.792267;paint-order:markers fill stroke"
         d="M 208.54593,87.277229 V 73.502795 h 17.61652 17.61651 v 13.774434 13.774431 h -17.61651 -17.61652 z"
         id="path3617"
         transform="scale(0.75)" />
      <rect
         style="opacity:1;fill:#ffffff;fill-opacity:0.910615;stroke:#ffffff;stroke-width:0.524;stroke-linecap:round;stroke-linejoin:round;stroke-dasharray:none;stroke-opacity:0.792267;paint-order:markers fill stroke"
         id="rect3537"
         width="23.808586"
         height="18.242096"
         x="157.60239"
         y="55.905025" />
      <text
         xml:space="preserve"
         style="font-size:14px;line-height:1.25;font-family:sans-serif;-inkscape-font-specification:sans-serif;letter-spacing:0px;word-spacing:0px;writing-mode:lr-tb;stroke-width:0.75"
         x="164.35818"
         y="68.438614"
         id="text3541"><tspan
           sodipodi:role="line"
           id="tspan3539"
           style="font-size:14px;writing-mode:lr-tb;stroke-width:0.75"
           x="164.35818"
           y="68.438614"></tspan></text>
      <text
         xml:space="preserve"
         style="font-size:15.5412px;line-height:1.25;font-family:sans-serif;-inkscape-font-specification:sans-serif;letter-spacing:0px;word-spacing:0px;writing-mode:tb-rl;stroke-width:0.971324"
         x="353.38132"
         y="105.05764"
         id="text3947"><tspan
           sodipodi:role="line"
           id="tspan3945"
           style="stroke-width:0.971324"></tspan></text>
    </g>
    <rect
       style="opacity:1;fill:#ccaaff;fill-opacity:0.910615;stroke:#000000;stroke-width:0.8;stroke-linecap:round;stroke-linejoin:round;stroke-dasharray:none;stroke-opacity:0.792267;paint-order:markers fill stroke"
       id="rect3884"
       width="21.969585"
       height="63.176697"
       x="210.5397"
       y="31.801819" />
    <text
       xml:space="preserve"
       style="font-size:12px;line-height:1.25;font-family:sans-serif;-inkscape-font-specification:sans-serif;letter-spacing:0px;word-spacing:0px;writing-mode:tb-rl;stroke-width:0.75"
       x="219.78156"
       y="42.804317"
       id="text3888"
       transform="rotate(-0.80995523)"><tspan
         sodipodi:role="line"
         id="tspan3886"
         style="stroke-width:0.75"
         x="219.78156"
         y="42.804317">Decoder</tspan></text>
    <g
       id="g4241"
       transform="translate(-0.2753188,-25.398208)">
      <rect
         style="opacity:1;fill:#ffccaa;fill-opacity:0.910615;stroke:#000000;stroke-width:0.800002;stroke-linecap:round;stroke-linejoin:round;stroke-dasharray:none;stroke-opacity:0.792267;paint-order:markers fill stroke"
         id="rect4224"
         width="41.993576"
         height="23.75082"
         x="254.36884"
         y="77.891731" />
      <g
         id="g4168"
         transform="translate(3.5453254,23.084047)">
        <text
           xml:space="preserve"
           style="font-size:16px;line-height:1.25;font-family:sans-serif;-inkscape-font-specification:sans-serif;letter-spacing:0px;word-spacing:0px;writing-mode:lr-tb;stroke-width:0.75"
           x="276.6347"
           y="70.013901"
           id="text3892"><tspan
             sodipodi:role="line"
             id="tspan3890"
             style="font-size:16px;writing-mode:lr-tb;stroke-width:0.75"
             x="276.6347"
             y="70.013901"></tspan></text>
        <text
           xml:space="preserve"
           style="font-size:10px;line-height:1.25;font-family:sans-serif;-inkscape-font-specification:sans-serif;letter-spacing:0px;word-spacing:0px;writing-mode:lr-tb;stroke-width:0.75"
           x="253.48151"
           y="69.862343"
           id="text3943"><tspan
             sodipodi:role="line"
             id="tspan3941"
             style="font-size:10px;writing-mode:lr-tb;stroke-width:0.75"
             x="253.48151"
             y="69.862343">min</tspan></text>
        <text
           xml:space="preserve"
           style="font-size:6px;line-height:1.25;font-family:sans-serif;-inkscape-font-specification:sans-serif;letter-spacing:0px;word-spacing:0px;writing-mode:lr-tb;stroke-width:0.75"
           x="270.97809"
           y="73.589706"
           id="text4160"><tspan
             sodipodi:role="line"
             id="tspan4158"
             style="font-size:6px;writing-mode:lr-tb;stroke-width:0.75"
             x="270.97809"
             y="73.589706"></tspan></text>
      </g>
    </g>
    <path
       style="fill:none;stroke:#000000;stroke-width:0.75px;stroke-linecap:butt;stroke-linejoin:miter;stroke-opacity:1;marker-end:url(#RoundedArrow)"
       d="m 236.35577,63.804289 11.8297,-0.08196"
       id="path4247" />
    <path
       style="fill:none;stroke:#000000;stroke-width:0.75px;stroke-linecap:butt;stroke-linejoin:miter;stroke-opacity:1;marker-end:url(#RoundedArrow);stroke-dasharray:2.25,0.75;stroke-dashoffset:0"
       d="m 276.07482,80.794302 c 0,0 -5.53115,42.586488 -73.70743,42.366278 -68.17627,-0.2202 -71.2906,-45.45297 -71.2906,-45.45297"
       id="path4508" />
  </g>
</svg>
